<svg width="16" height="47" viewBox="0 0 16 47" fill="none" xmlns="http://www.w3.org/2000/svg">
<path d="M15.4757 42.7422C15.4757 43.6089 15.2157 44.3716 14.6957 45.0302C14.1757 45.7236 13.517 46.0529 12.7197 46.0182C12.165 45.9836 10.813 45.2556 8.66369 43.8342C6.51436 42.3782 5.42236 41.3729 5.38769 40.8182C5.38769 40.5756 5.43969 40.2636 5.54369 39.8822C5.64769 39.4662 5.69969 39.1542 5.69969 38.9462V17.1062C5.69969 16.3089 4.91969 15.7369 3.35969 15.3902C1.62635 14.9742 0.638355 14.4022 0.395688 13.6742C0.257021 13.2929 0.187688 12.9289 0.187688 12.5822C0.187688 11.8196 0.569022 10.9182 1.33169 9.87823C2.37169 8.4569 2.99569 7.53823 3.20369 7.12223C3.61969 5.77023 4.03569 4.41823 4.45169 3.06623C5.04102 1.5409 6.06369 0.77823 7.51969 0.77823C9.01036 0.77823 10.501 1.2289 11.9917 2.13023C13.6557 3.13556 14.4877 4.27956 14.4877 5.56223V40.0382C14.4877 40.3849 14.6437 40.8356 14.9557 41.3902C15.3024 41.9102 15.4757 42.3609 15.4757 42.7422Z" fill="#F9D463"/>
</svg>
