<svg width="28" height="48" viewBox="0 0 28 48" fill="none" xmlns="http://www.w3.org/2000/svg">
<path d="M27.8367 39.6765C27.9407 40.6818 27.2994 41.3925 25.9127 41.8085C25.4621 41.7391 24.8034 41.7565 23.9367 41.8605C23.3127 41.8605 21.3541 42.3631 18.0607 43.3685C14.3514 44.4085 11.5954 45.3791 9.79272 46.2805C9.30739 46.5231 8.85672 46.8351 8.44072 47.2165C8.05939 47.6325 7.81672 47.8405 7.71272 47.8405C7.19272 47.9098 5.68472 47.0085 3.18872 45.1365C2.49539 44.7205 1.80206 44.2698 1.10872 43.7845C0.41539 43.2991 0.0513894 42.7271 0.0167227 42.0685C0.0167227 41.8258 1.52472 39.5551 4.54072 35.2565C8.25006 29.9871 11.1274 25.5845 13.1727 22.0485C16.3274 16.4671 18.0261 12.0471 18.2687 8.78846C15.5647 9.8978 12.8607 12.3938 10.1567 16.2765C9.94872 16.4498 9.81006 16.7791 9.74072 17.2645C9.70606 17.7151 9.61939 18.0271 9.48072 18.2005C9.13406 18.6511 8.63139 18.8765 7.97272 18.8765C6.82872 18.8765 5.44206 18.3218 3.81272 17.2125C3.11939 16.8311 2.42606 16.4498 1.73272 16.0685C0.900723 15.6178 0.46739 15.2191 0.432723 14.8725C0.36339 14.0751 1.23006 12.5325 3.03272 10.2445C4.97406 7.8178 7.12339 5.75513 9.48072 4.05646C12.2887 1.97646 14.7847 0.936463 16.9687 0.936463C17.8007 0.936463 18.5807 1.2138 19.3087 1.76846C20.0714 2.28846 20.7994 2.8258 21.4927 3.38046C24.3007 5.3218 26.0861 7.15913 26.8487 8.89246C26.9874 9.23913 27.0567 9.6898 27.0567 10.2445C27.0567 12.6711 25.7741 16.6231 23.2087 22.1005C20.7821 27.2658 18.1821 31.7551 15.4087 35.5685C16.4834 35.2218 17.9741 34.7018 19.8807 34.0085C20.0887 33.9045 20.4527 33.6618 20.9727 33.2805C21.3194 33.0378 21.6487 32.9338 21.9607 32.9685C22.7927 33.0725 23.9541 34.0605 25.4447 35.9325C26.9701 37.7698 27.7674 39.0178 27.8367 39.6765Z" fill="#FB923C"/>
</svg>
