<svg width="179" height="23" viewBox="0 0 179 23" fill="none" xmlns="http://www.w3.org/2000/svg">
<path d="M0 22.54H22V0.54H0V22.54ZM35.1592 7.44336L30.4863 21H27.6611L33.5479 5.35938H35.3525L35.1592 7.44336ZM39.0693 21L34.3857 7.44336L34.1816 5.35938H35.9971L41.9053 21H39.0693ZM38.8438 15.1992V17.3369H30.3359V15.1992H38.8438ZM49.9189 17.8525C49.9189 17.5947 49.8545 17.362 49.7256 17.1543C49.5967 16.9395 49.3496 16.7461 48.9844 16.5742C48.6263 16.4023 48.0964 16.2448 47.3945 16.1016C46.7786 15.9655 46.2129 15.8044 45.6973 15.6182C45.1888 15.4248 44.752 15.1921 44.3867 14.9199C44.0215 14.6478 43.7386 14.3255 43.5381 13.9531C43.3376 13.5807 43.2373 13.151 43.2373 12.6641C43.2373 12.1914 43.3411 11.7438 43.5488 11.3213C43.7565 10.8988 44.0537 10.5264 44.4404 10.2041C44.8271 9.88184 45.2962 9.6276 45.8477 9.44141C46.4062 9.25521 47.0293 9.16211 47.7168 9.16211C48.6908 9.16211 49.5251 9.32682 50.2197 9.65625C50.9215 9.97852 51.4587 10.4189 51.8311 10.9775C52.2035 11.529 52.3896 12.152 52.3896 12.8467H49.8008C49.8008 12.5387 49.722 12.2523 49.5645 11.9873C49.4141 11.7152 49.1849 11.4967 48.877 11.332C48.569 11.1602 48.1823 11.0742 47.7168 11.0742C47.2728 11.0742 46.904 11.1458 46.6104 11.2891C46.3239 11.4251 46.109 11.6042 45.9658 11.8262C45.8298 12.0482 45.7617 12.2917 45.7617 12.5566C45.7617 12.75 45.7975 12.9255 45.8691 13.083C45.9479 13.2334 46.0768 13.373 46.2559 13.502C46.4349 13.6237 46.6784 13.7383 46.9863 13.8457C47.3014 13.9531 47.6953 14.057 48.168 14.1572C49.056 14.3434 49.8187 14.5833 50.4561 14.877C51.1006 15.1634 51.5947 15.5358 51.9385 15.9941C52.2822 16.4453 52.4541 17.0182 52.4541 17.7129C52.4541 18.2285 52.3431 18.7012 52.1211 19.1309C51.9062 19.5534 51.5911 19.9222 51.1758 20.2373C50.7604 20.5452 50.2627 20.7852 49.6826 20.957C49.1097 21.1289 48.4652 21.2148 47.749 21.2148C46.6963 21.2148 45.8047 21.0286 45.0742 20.6562C44.3438 20.2767 43.7887 19.7933 43.4092 19.2061C43.0368 18.6117 42.8506 17.9958 42.8506 17.3584H45.3535C45.3822 17.8382 45.5146 18.2214 45.751 18.5078C45.9945 18.7871 46.2952 18.9912 46.6533 19.1201C47.0186 19.2419 47.3945 19.3027 47.7812 19.3027C48.2467 19.3027 48.637 19.2419 48.9521 19.1201C49.2673 18.9912 49.5072 18.8193 49.6719 18.6045C49.8366 18.3825 49.9189 18.1318 49.9189 17.8525ZM57.3311 4.5V21H54.7314V4.5H57.3311ZM64.5498 9.37695L59.4902 14.9844L56.7188 17.8203L56.042 15.6289L58.1367 13.04L61.4238 9.37695H64.5498ZM61.9824 21L58.2119 15.543L59.8447 13.7275L64.9795 21H61.9824ZM78.7617 18.5938V4.5H81.3613V21H79.0088L78.7617 18.5938ZM71.1992 15.3174V15.0918C71.1992 14.2109 71.3031 13.4089 71.5107 12.6855C71.7184 11.9551 72.0192 11.3285 72.4131 10.8057C72.807 10.2757 73.2868 9.87109 73.8525 9.5918C74.4183 9.30534 75.0557 9.16211 75.7646 9.16211C76.4665 9.16211 77.0824 9.29818 77.6123 9.57031C78.1423 9.84245 78.5934 10.2327 78.9658 10.7412C79.3382 11.2425 79.6354 11.8441 79.8574 12.5459C80.0794 13.2406 80.237 14.014 80.3301 14.8662V15.5859C80.237 16.4167 80.0794 17.1758 79.8574 17.8633C79.6354 18.5508 79.3382 19.1452 78.9658 19.6465C78.5934 20.1478 78.1387 20.5345 77.6016 20.8066C77.0716 21.0788 76.4521 21.2148 75.7432 21.2148C75.0413 21.2148 74.4076 21.068 73.8418 20.7744C73.2832 20.4808 72.807 20.069 72.4131 19.5391C72.0192 19.0091 71.7184 18.3861 71.5107 17.6699C71.3031 16.9466 71.1992 16.1624 71.1992 15.3174ZM73.7881 15.0918V15.3174C73.7881 15.8473 73.8346 16.3415 73.9277 16.7998C74.028 17.2581 74.182 17.6628 74.3896 18.0137C74.5973 18.3574 74.8659 18.6296 75.1953 18.8301C75.5319 19.0234 75.9329 19.1201 76.3984 19.1201C76.9857 19.1201 77.4691 18.9912 77.8486 18.7334C78.2282 18.4756 78.5254 18.1283 78.7402 17.6914C78.9622 17.2474 79.1126 16.7533 79.1914 16.209V14.2646C79.1484 13.8421 79.0589 13.4482 78.9229 13.083C78.7939 12.7178 78.6185 12.3991 78.3965 12.127C78.1745 11.8477 77.8988 11.6328 77.5693 11.4824C77.2471 11.3249 76.8639 11.2461 76.4199 11.2461C75.9473 11.2461 75.5462 11.3464 75.2168 11.5469C74.8874 11.7474 74.6152 12.0231 74.4004 12.374C74.1927 12.7249 74.0387 13.1331 73.9385 13.5986C73.8382 14.0641 73.7881 14.5618 73.7881 15.0918ZM86.668 11.5898V21H84.0791V9.37695H86.5498L86.668 11.5898ZM90.2236 9.30176L90.2021 11.708C90.0446 11.6794 89.8727 11.6579 89.6865 11.6436C89.5075 11.6292 89.3285 11.6221 89.1494 11.6221C88.7054 11.6221 88.3151 11.6865 87.9785 11.8154C87.6419 11.9372 87.359 12.1162 87.1299 12.3525C86.9079 12.5817 86.736 12.861 86.6143 13.1904C86.4925 13.5199 86.4209 13.8887 86.3994 14.2969L85.8086 14.3398C85.8086 13.6094 85.8802 12.9326 86.0234 12.3096C86.1667 11.6865 86.3815 11.1387 86.668 10.666C86.9616 10.1934 87.3268 9.82454 87.7637 9.55957C88.2077 9.2946 88.7197 9.16211 89.2998 9.16211C89.4574 9.16211 89.6257 9.17643 89.8047 9.20508C89.9909 9.23372 90.1305 9.26595 90.2236 9.30176ZM94.6172 9.37695V21H92.0176V9.37695H94.6172ZM91.8457 6.32617C91.8457 5.93229 91.9746 5.60645 92.2324 5.34863C92.4974 5.08366 92.8626 4.95117 93.3281 4.95117C93.7865 4.95117 94.1481 5.08366 94.4131 5.34863C94.6781 5.60645 94.8105 5.93229 94.8105 6.32617C94.8105 6.71289 94.6781 7.03516 94.4131 7.29297C94.1481 7.55078 93.7865 7.67969 93.3281 7.67969C92.8626 7.67969 92.4974 7.55078 92.2324 7.29297C91.9746 7.03516 91.8457 6.71289 91.8457 6.32617ZM100.021 11.8584V21H97.4316V9.37695H99.8701L100.021 11.8584ZM99.5586 14.7588L98.7207 14.748C98.7279 13.9245 98.8424 13.1689 99.0645 12.4814C99.2936 11.7939 99.6087 11.2031 100.01 10.709C100.418 10.2148 100.905 9.83529 101.471 9.57031C102.036 9.29818 102.667 9.16211 103.361 9.16211C103.92 9.16211 104.425 9.24089 104.876 9.39844C105.334 9.54883 105.725 9.7959 106.047 10.1396C106.376 10.4834 106.627 10.931 106.799 11.4824C106.971 12.0267 107.057 12.6963 107.057 13.4912V21H104.457V13.4805C104.457 12.9219 104.375 12.4814 104.21 12.1592C104.052 11.8298 103.82 11.597 103.512 11.4609C103.211 11.3177 102.835 11.2461 102.384 11.2461C101.94 11.2461 101.542 11.3392 101.191 11.5254C100.84 11.7116 100.543 11.9658 100.3 12.2881C100.063 12.6104 99.8809 12.9827 99.752 13.4053C99.623 13.8278 99.5586 14.279 99.5586 14.7588ZM112.31 4.5V21H109.71V4.5H112.31ZM119.528 9.37695L114.469 14.9844L111.697 17.8203L111.021 15.6289L113.115 13.04L116.402 9.37695H119.528ZM116.961 21L113.19 15.543L114.823 13.7275L119.958 21H116.961ZM127.692 17.8525C127.692 17.5947 127.628 17.362 127.499 17.1543C127.37 16.9395 127.123 16.7461 126.758 16.5742C126.4 16.4023 125.87 16.2448 125.168 16.1016C124.552 15.9655 123.986 15.8044 123.471 15.6182C122.962 15.4248 122.525 15.1921 122.16 14.9199C121.795 14.6478 121.512 14.3255 121.312 13.9531C121.111 13.5807 121.011 13.151 121.011 12.6641C121.011 12.1914 121.115 11.7438 121.322 11.3213C121.53 10.8988 121.827 10.5264 122.214 10.2041C122.601 9.88184 123.07 9.6276 123.621 9.44141C124.18 9.25521 124.803 9.16211 125.49 9.16211C126.464 9.16211 127.299 9.32682 127.993 9.65625C128.695 9.97852 129.232 10.4189 129.604 10.9775C129.977 11.529 130.163 12.152 130.163 12.8467H127.574C127.574 12.5387 127.495 12.2523 127.338 11.9873C127.188 11.7152 126.958 11.4967 126.65 11.332C126.342 11.1602 125.956 11.0742 125.49 11.0742C125.046 11.0742 124.677 11.1458 124.384 11.2891C124.097 11.4251 123.882 11.6042 123.739 11.8262C123.603 12.0482 123.535 12.2917 123.535 12.5566C123.535 12.75 123.571 12.9255 123.643 13.083C123.721 13.2334 123.85 13.373 124.029 13.502C124.208 13.6237 124.452 13.7383 124.76 13.8457C125.075 13.9531 125.469 14.057 125.941 14.1572C126.829 14.3434 127.592 14.5833 128.229 14.877C128.874 15.1634 129.368 15.5358 129.712 15.9941C130.056 16.4453 130.228 17.0182 130.228 17.7129C130.228 18.2285 130.117 18.7012 129.895 19.1309C129.68 19.5534 129.365 19.9222 128.949 20.2373C128.534 20.5452 128.036 20.7852 127.456 20.957C126.883 21.1289 126.239 21.2148 125.522 21.2148C124.47 21.2148 123.578 21.0286 122.848 20.6562C122.117 20.2767 121.562 19.7933 121.183 19.2061C120.81 18.6117 120.624 17.9958 120.624 17.3584H123.127C123.156 17.8382 123.288 18.2214 123.524 18.5078C123.768 18.7871 124.069 18.9912 124.427 19.1201C124.792 19.2419 125.168 19.3027 125.555 19.3027C126.02 19.3027 126.41 19.2419 126.726 19.1201C127.041 18.9912 127.281 18.8193 127.445 18.6045C127.61 18.3825 127.692 18.1318 127.692 17.8525ZM140.572 11.5898V21H137.983V9.37695H140.454L140.572 11.5898ZM144.128 9.30176L144.106 11.708C143.949 11.6794 143.777 11.6579 143.591 11.6436C143.412 11.6292 143.233 11.6221 143.054 11.6221C142.61 11.6221 142.219 11.6865 141.883 11.8154C141.546 11.9372 141.263 12.1162 141.034 12.3525C140.812 12.5817 140.64 12.861 140.519 13.1904C140.397 13.5199 140.325 13.8887 140.304 14.2969L139.713 14.3398C139.713 13.6094 139.785 12.9326 139.928 12.3096C140.071 11.6865 140.286 11.1387 140.572 10.666C140.866 10.1934 141.231 9.82454 141.668 9.55957C142.112 9.2946 142.624 9.16211 143.204 9.16211C143.362 9.16211 143.53 9.17643 143.709 9.20508C143.895 9.23372 144.035 9.26595 144.128 9.30176ZM150.659 21.2148C149.8 21.2148 149.023 21.0752 148.328 20.7959C147.641 20.5094 147.053 20.112 146.566 19.6035C146.087 19.0951 145.718 18.4971 145.46 17.8096C145.202 17.1221 145.073 16.3809 145.073 15.5859V15.1562C145.073 14.2467 145.206 13.4232 145.471 12.6855C145.736 11.9479 146.104 11.3177 146.577 10.7949C147.05 10.265 147.608 9.86035 148.253 9.58105C148.897 9.30176 149.596 9.16211 150.348 9.16211C151.178 9.16211 151.905 9.30176 152.528 9.58105C153.151 9.86035 153.667 10.2542 154.075 10.7627C154.491 11.264 154.799 11.862 154.999 12.5566C155.207 13.2513 155.311 14.0176 155.311 14.8555V15.9619H146.33V14.1035H152.754V13.8994C152.74 13.4339 152.646 12.9971 152.475 12.5889C152.31 12.1807 152.056 11.8512 151.712 11.6006C151.368 11.3499 150.91 11.2246 150.337 11.2246C149.907 11.2246 149.524 11.3177 149.188 11.5039C148.858 11.6829 148.582 11.9443 148.36 12.2881C148.138 12.6318 147.966 13.0472 147.845 13.5342C147.73 14.014 147.673 14.5547 147.673 15.1562V15.5859C147.673 16.0944 147.741 16.5671 147.877 17.0039C148.02 17.4336 148.228 17.8096 148.5 18.1318C148.772 18.4541 149.102 18.7083 149.488 18.8945C149.875 19.0736 150.315 19.1631 150.81 19.1631C151.433 19.1631 151.988 19.0378 152.475 18.7871C152.962 18.5365 153.384 18.182 153.742 17.7236L155.106 19.0449C154.856 19.4102 154.53 19.7611 154.129 20.0977C153.728 20.4271 153.237 20.6956 152.657 20.9033C152.084 21.111 151.418 21.2148 150.659 21.2148ZM160.66 21H158.061V8.625C158.061 7.68685 158.247 6.89551 158.619 6.25098C158.999 5.60645 159.539 5.11589 160.241 4.7793C160.95 4.44271 161.792 4.27441 162.766 4.27441C163.339 4.27441 163.89 4.33529 164.42 4.45703C164.957 4.57878 165.512 4.73275 166.085 4.91895L165.688 7.02441C165.322 6.90267 164.918 6.78809 164.474 6.68066C164.03 6.56608 163.518 6.50879 162.938 6.50879C162.157 6.50879 161.58 6.68783 161.208 7.0459C160.843 7.39681 160.66 7.92318 160.66 8.625V21ZM162.991 9.37695V11.2676H156.277V9.37695H162.991ZM167.31 9.37695V21H164.721V9.37695H167.31ZM172.971 4.5V21H170.371V4.5H172.971ZM178.578 4.5V21H175.979V4.5H178.578Z" fill="#0F172A"/>
</svg>
