<svg width="605" height="239" viewBox="0 0 605 239" fill="none" xmlns="http://www.w3.org/2000/svg">
<path d="M306.181 236.938C303.589 236.938 302.447 235.674 306.181 235.665C394.403 235.665 599.382 216.324 599.382 116.648C599.382 23.004 383.453 1.9382 302.81 1.9382C225.541 1.93821 1.81055 22.86 1.81056 114.475C1.81057 243.158 303.09 232.192 402.908 220.688C405.137 220.431 408.567 221.466 406.701 221.671C306.919 232.626 5.23885 244.722 5.23884 114.937C5.23883 23.322 228.97 2.40026 306.238 2.40025C386.881 2.40025 602.811 23.466 602.811 117.11C602.811 216.786 394.403 236.938 306.181 236.938Z" stroke="#F9D463" stroke-width="3" stroke-linecap="round" stroke-linejoin="round"/>
</svg>
