<svg width="481" height="199" viewBox="0 0 481 199" fill="none" xmlns="http://www.w3.org/2000/svg">
<path d="M237.499 1.86328C239.555 1.86328 240.461 2.91497 237.499 2.9228C167.514 2.9228 4.90879 19.0175 4.90879 101.964C4.90879 179.89 176.201 197.42 240.173 197.42C301.469 197.42 478.95 180.01 478.95 103.772C478.95 -3.31249 239.951 5.81287 160.768 15.3862C159 15.6 156.278 14.7383 157.759 14.5678C236.914 5.45141 476.23 -4.61408 476.23 103.387C476.23 179.625 298.749 197.036 237.454 197.036C173.482 197.036 2.18921 179.506 2.18921 101.579C2.18921 18.633 167.514 1.86328 237.499 1.86328Z" stroke="#FB923C" stroke-width="3" stroke-linecap="round" stroke-linejoin="round"/>
</svg>
