<svg width="132" height="23" viewBox="0 0 132 23" fill="none" xmlns="http://www.w3.org/2000/svg">
<path d="M0.75 22.54H22.75V0.54H0.75V22.54ZM39.0566 15.9082H41.7422C41.6562 16.9323 41.3698 17.8454 40.8828 18.6475C40.3958 19.4424 39.7119 20.069 38.8311 20.5273C37.9502 20.9857 36.8796 21.2148 35.6191 21.2148C34.6523 21.2148 33.7822 21.043 33.0088 20.6992C32.2354 20.3483 31.5729 19.8542 31.0215 19.2168C30.4701 18.5723 30.0475 17.7952 29.7539 16.8857C29.4674 15.9762 29.3242 14.9593 29.3242 13.835V12.5352C29.3242 11.4108 29.471 10.3939 29.7646 9.48438C30.0654 8.57487 30.4951 7.79785 31.0537 7.15332C31.6123 6.50163 32.2819 6.00391 33.0625 5.66016C33.8503 5.31641 34.7347 5.14453 35.7158 5.14453C36.9619 5.14453 38.0146 5.3737 38.874 5.83203C39.7334 6.29036 40.3994 6.92415 40.8721 7.7334C41.3519 8.54264 41.6455 9.47005 41.7529 10.5156H39.0674C38.9958 9.84245 38.8382 9.26595 38.5947 8.78613C38.3584 8.30632 38.0075 7.94108 37.542 7.69043C37.0765 7.43262 36.4678 7.30371 35.7158 7.30371C35.0999 7.30371 34.5628 7.41829 34.1045 7.64746C33.6462 7.87663 33.263 8.21322 32.9551 8.65723C32.6471 9.10124 32.4144 9.64909 32.2568 10.3008C32.1064 10.9453 32.0312 11.6829 32.0312 12.5137V13.835C32.0312 14.6227 32.0993 15.3389 32.2354 15.9834C32.3786 16.6208 32.5934 17.1686 32.8799 17.627C33.1735 18.0853 33.5459 18.4398 33.9971 18.6904C34.4482 18.9411 34.9889 19.0664 35.6191 19.0664C36.3854 19.0664 37.0049 18.9447 37.4775 18.7012C37.9574 18.4577 38.319 18.1032 38.5625 17.6377C38.8132 17.165 38.9779 16.5885 39.0566 15.9082ZM50.4863 18.6689V13.126C50.4863 12.7106 50.4111 12.3525 50.2607 12.0518C50.1104 11.751 49.8812 11.5182 49.5732 11.3535C49.2725 11.1888 48.8929 11.1064 48.4346 11.1064C48.012 11.1064 47.6468 11.1781 47.3389 11.3213C47.0309 11.4645 46.791 11.6579 46.6191 11.9014C46.4473 12.1449 46.3613 12.4206 46.3613 12.7285H43.7832C43.7832 12.2702 43.8942 11.8262 44.1162 11.3965C44.3382 10.9668 44.6605 10.5837 45.083 10.2471C45.5055 9.91048 46.0104 9.64551 46.5977 9.45215C47.1849 9.25879 47.8438 9.16211 48.5742 9.16211C49.4479 9.16211 50.2214 9.30892 50.8945 9.60254C51.5749 9.89616 52.1084 10.3402 52.4951 10.9346C52.889 11.5218 53.0859 12.2594 53.0859 13.1475V18.3145C53.0859 18.8444 53.1217 19.3206 53.1934 19.7432C53.2721 20.1585 53.3831 20.5202 53.5264 20.8281V21H50.873C50.7513 20.7207 50.6546 20.3662 50.583 19.9365C50.5186 19.4997 50.4863 19.0771 50.4863 18.6689ZM50.8623 13.9316L50.8838 15.5322H49.0254C48.5456 15.5322 48.123 15.5788 47.7578 15.6719C47.3926 15.7578 47.0882 15.8867 46.8447 16.0586C46.6012 16.2305 46.4186 16.4382 46.2969 16.6816C46.1751 16.9251 46.1143 17.2008 46.1143 17.5088C46.1143 17.8167 46.1859 18.0996 46.3291 18.3574C46.4723 18.6081 46.68 18.805 46.9521 18.9482C47.2314 19.0915 47.568 19.1631 47.9619 19.1631C48.4919 19.1631 48.9538 19.0557 49.3477 18.8408C49.7487 18.6188 50.0638 18.3503 50.293 18.0352C50.5221 17.7129 50.6439 17.4085 50.6582 17.1221L51.4961 18.2715C51.4102 18.5651 51.2633 18.8802 51.0557 19.2168C50.848 19.5534 50.5758 19.8757 50.2393 20.1836C49.9098 20.4844 49.5124 20.7314 49.0469 20.9248C48.5885 21.1182 48.0586 21.2148 47.457 21.2148C46.6979 21.2148 46.0212 21.0645 45.4268 20.7637C44.8324 20.4557 44.3669 20.0439 44.0303 19.5283C43.6937 19.0055 43.5254 18.4147 43.5254 17.7559C43.5254 17.14 43.64 16.5957 43.8691 16.123C44.1055 15.6432 44.4492 15.2422 44.9004 14.9199C45.3587 14.5977 45.9173 14.3542 46.5762 14.1895C47.235 14.0176 47.987 13.9316 48.832 13.9316H50.8623ZM58.5645 4.5V21H55.9648V4.5H58.5645ZM64.1719 4.5V21H61.5723V4.5H64.1719ZM75.6445 18.4219L78.3301 9.37695H79.9844L79.5332 12.084L76.8262 21H75.3438L75.6445 18.4219ZM74.0654 9.37695L76.1602 18.4648L76.332 21H74.6777L71.5303 9.37695H74.0654ZM82.498 18.3574L84.5283 9.37695H87.0527L83.916 21H82.2617L82.498 18.3574ZM80.2637 9.37695L82.917 18.3145L83.25 21H81.7676L79.0283 12.0732L78.5771 9.37695H80.2637ZM95.3672 18.6689V13.126C95.3672 12.7106 95.292 12.3525 95.1416 12.0518C94.9912 11.751 94.762 11.5182 94.4541 11.3535C94.1533 11.1888 93.7738 11.1064 93.3154 11.1064C92.8929 11.1064 92.5277 11.1781 92.2197 11.3213C91.9118 11.4645 91.6719 11.6579 91.5 11.9014C91.3281 12.1449 91.2422 12.4206 91.2422 12.7285H88.6641C88.6641 12.2702 88.7751 11.8262 88.9971 11.3965C89.2191 10.9668 89.5413 10.5837 89.9639 10.2471C90.3864 9.91048 90.8913 9.64551 91.4785 9.45215C92.0658 9.25879 92.7246 9.16211 93.4551 9.16211C94.3288 9.16211 95.1022 9.30892 95.7754 9.60254C96.4557 9.89616 96.9893 10.3402 97.376 10.9346C97.7699 11.5218 97.9668 12.2594 97.9668 13.1475V18.3145C97.9668 18.8444 98.0026 19.3206 98.0742 19.7432C98.153 20.1585 98.264 20.5202 98.4072 20.8281V21H95.7539C95.6322 20.7207 95.5355 20.3662 95.4639 19.9365C95.3994 19.4997 95.3672 19.0771 95.3672 18.6689ZM95.7432 13.9316L95.7646 15.5322H93.9062C93.4264 15.5322 93.0039 15.5788 92.6387 15.6719C92.2734 15.7578 91.9691 15.8867 91.7256 16.0586C91.4821 16.2305 91.2995 16.4382 91.1777 16.6816C91.056 16.9251 90.9951 17.2008 90.9951 17.5088C90.9951 17.8167 91.0667 18.0996 91.21 18.3574C91.3532 18.6081 91.5609 18.805 91.833 18.9482C92.1123 19.0915 92.4489 19.1631 92.8428 19.1631C93.3727 19.1631 93.8346 19.0557 94.2285 18.8408C94.6296 18.6188 94.9447 18.3503 95.1738 18.0352C95.403 17.7129 95.5247 17.4085 95.5391 17.1221L96.377 18.2715C96.291 18.5651 96.1442 18.8802 95.9365 19.2168C95.7288 19.5534 95.4567 19.8757 95.1201 20.1836C94.7907 20.4844 94.3932 20.7314 93.9277 20.9248C93.4694 21.1182 92.9395 21.2148 92.3379 21.2148C91.5788 21.2148 90.902 21.0645 90.3076 20.7637C89.7132 20.4557 89.2477 20.0439 88.9111 19.5283C88.5745 19.0055 88.4062 18.4147 88.4062 17.7559C88.4062 17.14 88.5208 16.5957 88.75 16.123C88.9863 15.6432 89.3301 15.2422 89.7812 14.9199C90.2396 14.5977 90.7982 14.3542 91.457 14.1895C92.1159 14.0176 92.8678 13.9316 93.7129 13.9316H95.7432ZM103.445 9.37695V21H100.846V9.37695H103.445ZM100.674 6.32617C100.674 5.93229 100.803 5.60645 101.061 5.34863C101.326 5.08366 101.691 4.95117 102.156 4.95117C102.615 4.95117 102.976 5.08366 103.241 5.34863C103.506 5.60645 103.639 5.93229 103.639 6.32617C103.639 6.71289 103.506 7.03516 103.241 7.29297C102.976 7.55078 102.615 7.67969 102.156 7.67969C101.691 7.67969 101.326 7.55078 101.061 7.29297C100.803 7.03516 100.674 6.71289 100.674 6.32617ZM111.609 9.37695V11.2676H105.057V9.37695H111.609ZM106.947 6.53027H109.536V17.7881C109.536 18.1462 109.586 18.4219 109.687 18.6152C109.794 18.8014 109.941 18.9268 110.127 18.9912C110.313 19.0557 110.532 19.0879 110.782 19.0879C110.961 19.0879 111.133 19.0771 111.298 19.0557C111.463 19.0342 111.595 19.0127 111.695 18.9912L111.706 20.9678C111.491 21.0322 111.241 21.0895 110.954 21.1396C110.675 21.1898 110.353 21.2148 109.987 21.2148C109.393 21.2148 108.867 21.111 108.408 20.9033C107.95 20.6885 107.592 20.3411 107.334 19.8613C107.076 19.3815 106.947 18.7441 106.947 17.9492V6.53027ZM118.731 21.2148C117.872 21.2148 117.095 21.0752 116.4 20.7959C115.713 20.5094 115.126 20.112 114.639 19.6035C114.159 19.0951 113.79 18.4971 113.532 17.8096C113.274 17.1221 113.146 16.3809 113.146 15.5859V15.1562C113.146 14.2467 113.278 13.4232 113.543 12.6855C113.808 11.9479 114.177 11.3177 114.649 10.7949C115.122 10.265 115.681 9.86035 116.325 9.58105C116.97 9.30176 117.668 9.16211 118.42 9.16211C119.251 9.16211 119.978 9.30176 120.601 9.58105C121.224 9.86035 121.739 10.2542 122.147 10.7627C122.563 11.264 122.871 11.862 123.071 12.5566C123.279 13.2513 123.383 14.0176 123.383 14.8555V15.9619H114.402V14.1035H120.826V13.8994C120.812 13.4339 120.719 12.9971 120.547 12.5889C120.382 12.1807 120.128 11.8512 119.784 11.6006C119.44 11.3499 118.982 11.2246 118.409 11.2246C117.979 11.2246 117.596 11.3177 117.26 11.5039C116.93 11.6829 116.655 11.9443 116.433 12.2881C116.211 12.6318 116.039 13.0472 115.917 13.5342C115.802 14.014 115.745 14.5547 115.745 15.1562V15.5859C115.745 16.0944 115.813 16.5671 115.949 17.0039C116.092 17.4336 116.3 17.8096 116.572 18.1318C116.844 18.4541 117.174 18.7083 117.561 18.8945C117.947 19.0736 118.388 19.1631 118.882 19.1631C119.505 19.1631 120.06 19.0378 120.547 18.7871C121.034 18.5365 121.456 18.182 121.814 17.7236L123.179 19.0449C122.928 19.4102 122.602 19.7611 122.201 20.0977C121.8 20.4271 121.31 20.6956 120.729 20.9033C120.157 21.111 119.491 21.2148 118.731 21.2148ZM128.002 11.5898V21H125.413V9.37695H127.884L128.002 11.5898ZM131.558 9.30176L131.536 11.708C131.379 11.6794 131.207 11.6579 131.021 11.6436C130.841 11.6292 130.662 11.6221 130.483 11.6221C130.039 11.6221 129.649 11.6865 129.312 11.8154C128.976 11.9372 128.693 12.1162 128.464 12.3525C128.242 12.5817 128.07 12.861 127.948 13.1904C127.826 13.5199 127.755 13.8887 127.733 14.2969L127.143 14.3398C127.143 13.6094 127.214 12.9326 127.357 12.3096C127.501 11.6865 127.715 11.1387 128.002 10.666C128.296 10.1934 128.661 9.82454 129.098 9.55957C129.542 9.2946 130.054 9.16211 130.634 9.16211C130.791 9.16211 130.96 9.17643 131.139 9.20508C131.325 9.23372 131.465 9.26595 131.558 9.30176Z" fill="#0F172A"/>
</svg>
