<svg width="140" height="583" viewBox="0 0 140 583" fill="none" xmlns="http://www.w3.org/2000/svg">
<path d="M128.023 149.622L131.624 147.73L130.936 151.739L133.851 154.579L129.825 155.164L128.023 158.813L126.223 155.164L122.196 154.579L125.11 151.739L124.422 147.73L128.023 149.622Z" fill="#FB923C"/>
<g clip-path="url(#clip0_167_1340)">
<path d="M133.524 384.92L136.353 383.433L135.812 386.583L138.102 388.814L134.939 389.274L133.524 392.141L132.109 389.274L128.945 388.814L131.235 386.583L130.694 383.433L133.524 384.92Z" fill="#FB923C"/>
</g>
<g clip-path="url(#clip1_167_1340)">
<path d="M104.489 206.908C106.1 206.908 107.406 208.214 107.406 209.825C107.406 211.436 106.1 212.742 104.489 212.742C102.878 212.742 101.573 211.436 101.573 209.825C101.573 208.214 102.878 206.908 104.489 206.908Z" fill="#FB923C"/>
</g>
<g clip-path="url(#clip2_167_1340)">
<path d="M105.972 93.9887C107.813 93.9887 109.305 95.4811 109.305 97.3221C109.305 99.1631 107.813 100.655 105.972 100.655C104.131 100.655 102.638 99.1631 102.638 97.3221C102.638 95.4811 104.131 93.9887 105.972 93.9887Z" fill="#FB923C"/>
</g>
<g clip-path="url(#clip3_167_1340)">
<path d="M41.0235 74.1497C43.3248 74.1497 45.1902 76.0151 45.1902 78.3164C45.1902 80.6176 43.3248 82.483 41.0235 82.483C38.7223 82.483 36.8569 80.6176 36.8569 78.3164C36.8569 76.0151 38.7223 74.1497 41.0235 74.1497Z" fill="#FB923C"/>
</g>
<g clip-path="url(#clip4_167_1340)">
<path d="M73.9757 168.15C76.2769 168.15 78.1423 170.015 78.1423 172.317C78.1423 174.618 76.2769 176.483 73.9757 176.483C71.6744 176.483 69.809 174.618 69.809 172.317C69.809 170.015 71.6744 168.15 73.9757 168.15Z" fill="#FB923C"/>
</g>
<g clip-path="url(#clip5_167_1340)">
<path d="M123.523 515.23C126.055 515.23 128.107 517.282 128.107 519.814C128.107 522.345 126.055 524.397 123.523 524.397C120.992 524.397 118.94 522.345 118.94 519.814C118.94 517.282 120.992 515.23 123.523 515.23Z" fill="#FB923C"/>
</g>
<g clip-path="url(#clip6_167_1340)">
<path d="M123.024 289.666C123.944 289.666 124.69 290.412 124.69 291.333C124.69 292.253 123.944 292.999 123.024 292.999C122.103 292.999 121.357 292.253 121.357 291.333C121.357 290.412 122.103 289.666 123.024 289.666Z" fill="#FB923C"/>
</g>
<g clip-path="url(#clip7_167_1340)">
<path d="M3.4991 252.908C5.10998 252.908 6.41577 254.214 6.41577 255.825C6.41577 257.436 5.10998 258.742 3.4991 258.742C1.88823 258.742 0.582438 257.436 0.582438 255.825C0.582438 254.214 1.88823 252.908 3.4991 252.908Z" fill="#FB923C"/>
</g>
<g clip-path="url(#clip8_167_1340)">
<path d="M8.97754 485.828C10.3583 485.828 11.4775 486.947 11.4775 488.328C11.4775 489.708 10.3583 490.828 8.97754 490.828C7.59679 490.828 6.47754 489.708 6.47754 488.328C6.47754 486.947 7.59679 485.828 8.97754 485.828Z" fill="#FB923C"/>
</g>
<path d="M88.6484 420.219V423.344C88.6484 423.509 88.7143 423.668 88.8315 423.785C88.9487 423.903 89.1077 423.969 89.2734 423.969C89.4392 423.969 89.5982 423.903 89.7154 423.785C89.8326 423.668 89.8984 423.509 89.8984 423.344V420.219H93.0234C93.1892 420.219 93.3482 420.153 93.4654 420.035C93.5826 419.918 93.6484 419.759 93.6484 419.594C93.6484 419.428 93.5826 419.269 93.4654 419.152C93.3482 419.034 93.1892 418.969 93.0234 418.969H89.8984V415.844C89.8984 415.678 89.8326 415.519 89.7154 415.402C89.5982 415.284 89.4392 415.219 89.2734 415.219C89.1077 415.219 88.9487 415.284 88.8315 415.402C88.7143 415.519 88.6484 415.678 88.6484 415.844V418.969H85.5234C85.3577 418.969 85.1987 419.034 85.0815 419.152C84.9643 419.269 84.8984 419.428 84.8984 419.594C84.8984 419.759 84.9643 419.918 85.0815 420.035C85.1987 420.153 85.3577 420.219 85.5234 420.219H88.6484Z" fill="#FB923C"/>
<path d="M105.557 348.543V350.21C105.557 350.299 105.592 350.383 105.654 350.446C105.717 350.508 105.802 350.543 105.89 350.543C105.978 350.543 106.063 350.508 106.126 350.446C106.188 350.383 106.223 350.299 106.223 350.21V348.543H107.89C107.978 348.543 108.063 348.508 108.126 348.446C108.188 348.383 108.223 348.299 108.223 348.21C108.223 348.122 108.188 348.037 108.126 347.974C108.063 347.912 107.978 347.877 107.89 347.877H106.223V346.21C106.223 346.122 106.188 346.037 106.126 345.974C106.063 345.912 105.978 345.877 105.89 345.877C105.802 345.877 105.717 345.912 105.654 345.974C105.592 346.037 105.557 346.122 105.557 346.21V347.877H103.89C103.802 347.877 103.717 347.912 103.654 347.974C103.592 348.037 103.557 348.122 103.557 348.21C103.557 348.299 103.592 348.383 103.654 348.446C103.717 348.508 103.802 348.543 103.89 348.543H105.557Z" fill="#FB923C"/>
<g clip-path="url(#clip9_167_1340)">
<path d="M49.0234 312.827C50.4042 312.827 51.5234 313.947 51.5234 315.327C51.5234 316.708 50.4042 317.827 49.0234 317.827C47.6427 317.827 46.5234 316.708 46.5234 315.327C46.5234 313.947 47.6427 312.827 49.0234 312.827Z" fill="#FB923C"/>
</g>
<path d="M89.3235 41.6436V44.1436C89.3235 44.2762 89.3762 44.4033 89.4699 44.4971C89.5637 44.5909 89.6909 44.6436 89.8235 44.6436C89.9561 44.6436 90.0833 44.5909 90.177 44.4971C90.2708 44.4033 90.3235 44.2762 90.3235 44.1436V41.6436H92.8235C92.9561 41.6436 93.0833 41.5909 93.177 41.4971C93.2708 41.4033 93.3235 41.2762 93.3235 41.1436C93.3235 41.0109 93.2708 40.8838 93.177 40.79C93.0833 40.6962 92.9561 40.6436 92.8235 40.6436H90.3235V38.1436C90.3235 38.0109 90.2708 37.8838 90.177 37.79C90.0833 37.6962 89.9561 37.6436 89.8235 37.6436C89.6909 37.6436 89.5637 37.6962 89.4699 37.79C89.3762 37.8838 89.3235 38.0109 89.3235 38.1436V40.6436H86.8235C86.6909 40.6436 86.5637 40.6962 86.4699 40.79C86.3762 40.8838 86.3235 41.0109 86.3235 41.1436C86.3235 41.2762 86.3762 41.4033 86.4699 41.4971C86.5637 41.5909 86.6909 41.6436 86.8235 41.6436H89.3235Z" fill="#FB923C"/>
<path d="M3.24973 164.864L2.51327 165.601C2.49337 165.62 2.4775 165.643 2.46658 165.669C2.45566 165.694 2.44991 165.721 2.44967 165.749C2.44943 165.777 2.4547 165.804 2.46518 165.83C2.47565 165.855 2.49112 165.879 2.51068 165.898C2.53025 165.918 2.55351 165.933 2.57911 165.944C2.60471 165.954 2.63215 165.959 2.65981 165.959C2.68747 165.959 2.71481 165.953 2.74023 165.942C2.76564 165.931 2.78863 165.916 2.80785 165.896L3.54452 165.159L4.28098 165.896C4.30019 165.916 4.32318 165.931 4.3486 165.942C4.37402 165.953 4.40135 165.959 4.42902 165.959C4.45668 165.959 4.48411 165.954 4.50972 165.944C4.53532 165.933 4.55858 165.918 4.57814 165.898C4.5977 165.879 4.61317 165.855 4.62365 165.83C4.63412 165.804 4.63939 165.777 4.63915 165.749C4.63891 165.721 4.63316 165.694 4.62225 165.669C4.61133 165.643 4.59546 165.62 4.57556 165.601L3.8391 164.865L4.57556 164.128C4.59546 164.109 4.61133 164.086 4.62225 164.06C4.63316 164.035 4.63891 164.008 4.63915 163.98C4.63939 163.952 4.63412 163.925 4.62365 163.899C4.61317 163.874 4.5977 163.85 4.57814 163.831C4.55858 163.811 4.53532 163.796 4.50972 163.785C4.48411 163.775 4.45668 163.77 4.42902 163.77C4.40135 163.77 4.37402 163.776 4.3486 163.787C4.32318 163.798 4.30019 163.813 4.28098 163.833L3.54452 164.57L2.80785 163.833C2.78863 163.813 2.76564 163.798 2.74023 163.787C2.71481 163.776 2.68747 163.77 2.65981 163.77C2.63215 163.77 2.60471 163.775 2.57911 163.785C2.55351 163.796 2.53025 163.811 2.51068 163.831C2.49112 163.85 2.47565 163.874 2.46518 163.899C2.4547 163.925 2.44943 163.952 2.44967 163.98C2.44991 164.008 2.45566 164.035 2.46658 164.06C2.4775 164.086 2.49337 164.109 2.51327 164.128L3.24973 164.865V164.864Z" fill="#FB923C"/>
<path d="M101.702 574.906L99.4929 577.116C99.4332 577.174 99.3856 577.243 99.3529 577.319C99.3201 577.395 99.3029 577.477 99.3021 577.56C99.3014 577.643 99.3172 577.725 99.3487 577.802C99.3801 577.879 99.4265 577.949 99.4852 578.007C99.5439 578.066 99.6136 578.113 99.6905 578.144C99.7673 578.175 99.8496 578.191 99.9326 578.191C100.016 578.19 100.098 578.173 100.174 578.14C100.25 578.107 100.319 578.059 100.377 578L102.587 575.79L104.796 578C104.854 578.059 104.923 578.107 104.999 578.14C105.075 578.173 105.157 578.19 105.24 578.191C105.323 578.191 105.405 578.175 105.482 578.144C105.559 578.113 105.629 578.066 105.688 578.007C105.746 577.949 105.793 577.879 105.824 577.802C105.855 577.725 105.871 577.643 105.871 577.56C105.87 577.477 105.853 577.395 105.82 577.319C105.787 577.243 105.739 577.174 105.68 577.116L103.47 574.907L105.68 572.697C105.739 572.639 105.787 572.57 105.82 572.494C105.853 572.417 105.87 572.335 105.871 572.252C105.871 572.17 105.855 572.087 105.824 572.01C105.793 571.934 105.746 571.864 105.688 571.805C105.629 571.746 105.559 571.7 105.482 571.669C105.405 571.637 105.323 571.621 105.24 571.622C105.157 571.623 105.075 571.64 104.999 571.673C104.923 571.706 104.854 571.753 104.796 571.813L102.587 574.022L100.377 571.813C100.319 571.753 100.25 571.706 100.174 571.673C100.098 571.64 100.016 571.623 99.9326 571.622C99.8496 571.621 99.7673 571.637 99.6905 571.669C99.6136 571.7 99.5439 571.746 99.4852 571.805C99.4265 571.864 99.3801 571.934 99.3487 572.01C99.3172 572.087 99.3014 572.17 99.3021 572.252C99.3029 572.335 99.3201 572.417 99.3529 572.494C99.3856 572.57 99.4332 572.639 99.4929 572.697L101.702 574.907V574.906Z" fill="#FB923C"/>
<path d="M9.28735 6.64417V9.14417C9.28735 9.27677 9.34003 9.40395 9.4338 9.49772C9.52757 9.59149 9.65475 9.64417 9.78735 9.64417C9.91996 9.64417 10.0471 9.59149 10.1409 9.49772C10.2347 9.40395 10.2874 9.27677 10.2874 9.14417V6.64417H12.7874C12.92 6.64417 13.0471 6.59149 13.1409 6.49772C13.2347 6.40395 13.2874 6.27677 13.2874 6.14417C13.2874 6.01156 13.2347 5.88438 13.1409 5.79061C13.0471 5.69684 12.92 5.64417 12.7874 5.64417H10.2874V3.14417C10.2874 3.01156 10.2347 2.88438 10.1409 2.79061C10.0471 2.69684 9.91996 2.64417 9.78735 2.64417C9.65475 2.64417 9.52757 2.69684 9.4338 2.79061C9.34003 2.88438 9.28735 3.01156 9.28735 3.14417V5.64417H6.78735C6.65475 5.64417 6.52757 5.69684 6.4338 5.79061C6.34003 5.88438 6.28735 6.01156 6.28735 6.14417C6.28735 6.27677 6.34003 6.40395 6.4338 6.49772C6.52757 6.59149 6.65475 6.64417 6.78735 6.64417H9.28735Z" fill="#FB923C"/>
<path d="M76.4401 520.594V522.677C76.4401 522.787 76.484 522.893 76.5621 522.971C76.6403 523.05 76.7463 523.094 76.8568 523.094C76.9673 523.094 77.0733 523.05 77.1514 522.971C77.2295 522.893 77.2734 522.787 77.2734 522.677V520.594H79.3568C79.4673 520.594 79.5733 520.55 79.6514 520.471C79.7295 520.393 79.7734 520.287 79.7734 520.177C79.7734 520.066 79.7295 519.96 79.6514 519.882C79.5733 519.804 79.4673 519.76 79.3568 519.76H77.2734V517.677C77.2734 517.566 77.2295 517.46 77.1514 517.382C77.0733 517.304 76.9673 517.26 76.8568 517.26C76.7463 517.26 76.6403 517.304 76.5621 517.382C76.484 517.46 76.4401 517.566 76.4401 517.677V519.76H74.3568C74.2463 519.76 74.1403 519.804 74.0621 519.882C73.984 519.96 73.9401 520.066 73.9401 520.177C73.9401 520.287 73.984 520.393 74.0621 520.471C74.1403 520.55 74.2463 520.594 74.3568 520.594H76.4401Z" fill="#FB923C"/>
<path d="M26.5855 191.377L25.4072 192.556C25.3753 192.586 25.3499 192.623 25.3325 192.664C25.315 192.704 25.3058 192.748 25.3054 192.792C25.305 192.837 25.3135 192.881 25.3302 192.922C25.347 192.963 25.3717 193 25.403 193.031C25.4343 193.062 25.4715 193.087 25.5125 193.104C25.5535 193.121 25.5974 193.129 25.6416 193.129C25.6859 193.128 25.7296 193.119 25.7703 193.102C25.811 193.084 25.8477 193.059 25.8785 193.027L27.0572 191.849L28.2355 193.027C28.2662 193.059 28.303 193.084 28.3437 193.102C28.3844 193.119 28.4281 193.128 28.4724 193.129C28.5166 193.129 28.5605 193.121 28.6015 193.104C28.6424 193.087 28.6797 193.062 28.711 193.031C28.7423 193 28.767 192.963 28.7838 192.922C28.8005 192.881 28.809 192.837 28.8086 192.792C28.8082 192.748 28.799 192.704 28.7815 192.664C28.7641 192.623 28.7387 192.586 28.7068 192.556L27.5285 191.377L28.7068 190.199C28.7387 190.168 28.7641 190.131 28.7815 190.09C28.799 190.05 28.8082 190.006 28.8086 189.962C28.809 189.917 28.8005 189.874 28.7838 189.833C28.767 189.792 28.7423 189.754 28.711 189.723C28.6797 189.692 28.6424 189.667 28.6015 189.65C28.5605 189.634 28.5166 189.625 28.4724 189.625C28.4281 189.626 28.3844 189.635 28.3437 189.653C28.303 189.67 28.2662 189.695 28.2355 189.727L27.0572 190.906L25.8785 189.727C25.8477 189.695 25.811 189.67 25.7703 189.653C25.7296 189.635 25.6859 189.626 25.6416 189.625C25.5974 189.625 25.5535 189.634 25.5125 189.65C25.4715 189.667 25.4343 189.692 25.403 189.723C25.3717 189.754 25.347 189.792 25.3302 189.833C25.3135 189.874 25.305 189.917 25.3054 189.962C25.3058 190.006 25.315 190.05 25.3325 190.09C25.3499 190.131 25.3753 190.168 25.4072 190.199L26.5855 191.377V191.377Z" fill="#FB923C"/>
<defs>
<clipPath id="clip0_167_1340">
<rect width="11" height="11" fill="white" transform="matrix(-1 0 0 -1 139.023 393.344)"/>
</clipPath>
<clipPath id="clip1_167_1340">
<rect width="7" height="7" fill="white" transform="matrix(-1 0 0 -1 107.989 213.344)"/>
</clipPath>
<clipPath id="clip2_167_1340">
<rect width="8" height="8" fill="white" transform="matrix(-1 0 0 -1 109.972 101.344)"/>
</clipPath>
<clipPath id="clip3_167_1340">
<rect width="10" height="10" fill="white" transform="matrix(-1 0 0 -1 46.0234 83.3435)"/>
</clipPath>
<clipPath id="clip4_167_1340">
<rect width="10" height="10" fill="white" transform="matrix(-1 0 0 -1 78.9756 177.344)"/>
</clipPath>
<clipPath id="clip5_167_1340">
<rect width="11" height="11" fill="white" transform="matrix(-1 0 0 -1 129.023 525.344)"/>
</clipPath>
<clipPath id="clip6_167_1340">
<rect width="4" height="4" fill="white" transform="matrix(-1 0 0 -1 125.023 293.344)"/>
</clipPath>
<clipPath id="clip7_167_1340">
<rect width="7" height="7" fill="white" transform="matrix(-1 0 0 -1 6.99902 259.344)"/>
</clipPath>
<clipPath id="clip8_167_1340">
<rect width="6" height="6" fill="white" transform="matrix(-1 0 0 -1 11.9775 491.344)"/>
</clipPath>
<clipPath id="clip9_167_1340">
<rect width="6" height="6" fill="white" transform="matrix(-1 0 0 -1 52.0234 318.344)"/>
</clipPath>
</defs>
</svg>
