<svg width="159" height="23" viewBox="0 0 159 23" fill="none" xmlns="http://www.w3.org/2000/svg">
<path d="M0.25 22.54H22.25V0.54H0.25V22.54ZM41.3281 13.0078V18.9805C41.1061 19.2741 40.7588 19.5964 40.2861 19.9473C39.8206 20.291 39.2012 20.5882 38.4277 20.8389C37.6543 21.0895 36.6911 21.2148 35.5381 21.2148C34.557 21.2148 33.6582 21.0501 32.8418 20.7207C32.0254 20.3841 31.32 19.8936 30.7256 19.249C30.1383 18.6045 29.6836 17.8203 29.3613 16.8965C29.0391 15.9655 28.8779 14.9056 28.8779 13.7168V12.6318C28.8779 11.4502 29.0247 10.3975 29.3184 9.47363C29.6191 8.54264 30.0488 7.75488 30.6074 7.11035C31.166 6.46582 31.8392 5.97884 32.627 5.64941C33.4219 5.31283 34.3206 5.14453 35.3232 5.14453C36.6051 5.14453 37.665 5.35938 38.5029 5.78906C39.348 6.21159 39.9997 6.79883 40.458 7.55078C40.9163 8.30273 41.2064 9.16211 41.3281 10.1289H38.6855C38.5996 9.58464 38.4313 9.09766 38.1807 8.66797C37.9372 8.23828 37.5863 7.90169 37.1279 7.6582C36.6768 7.40755 36.0895 7.28223 35.3662 7.28223C34.7432 7.28223 34.1953 7.40039 33.7227 7.63672C33.25 7.87305 32.8561 8.22038 32.541 8.67871C32.2331 9.13704 32.0003 9.69564 31.8428 10.3545C31.6852 11.0133 31.6064 11.7653 31.6064 12.6104V13.7168C31.6064 14.5762 31.696 15.3389 31.875 16.0049C32.0612 16.6709 32.3262 17.2331 32.6699 17.6914C33.0208 18.1497 33.4469 18.4971 33.9482 18.7334C34.4495 18.9626 35.0153 19.0771 35.6455 19.0771C36.2614 19.0771 36.7663 19.027 37.1602 18.9268C37.554 18.8193 37.8656 18.694 38.0947 18.5508C38.3311 18.4004 38.5137 18.2572 38.6426 18.1211V15.0166H35.3877V13.0078H41.3281ZM49.1807 21.2148C48.3213 21.2148 47.5443 21.0752 46.8496 20.7959C46.1621 20.5094 45.5749 20.112 45.0879 19.6035C44.6081 19.0951 44.2393 18.4971 43.9814 17.8096C43.7236 17.1221 43.5947 16.3809 43.5947 15.5859V15.1562C43.5947 14.2467 43.7272 13.4232 43.9922 12.6855C44.2572 11.9479 44.626 11.3177 45.0986 10.7949C45.5713 10.265 46.1299 9.86035 46.7744 9.58105C47.4189 9.30176 48.1172 9.16211 48.8691 9.16211C49.6999 9.16211 50.4268 9.30176 51.0498 9.58105C51.6729 9.86035 52.1885 10.2542 52.5967 10.7627C53.012 11.264 53.32 11.862 53.5205 12.5566C53.7282 13.2513 53.832 14.0176 53.832 14.8555V15.9619H44.8516V14.1035H51.2754V13.8994C51.2611 13.4339 51.168 12.9971 50.9961 12.5889C50.8314 12.1807 50.5771 11.8512 50.2334 11.6006C49.8896 11.3499 49.4313 11.2246 48.8584 11.2246C48.4287 11.2246 48.0456 11.3177 47.709 11.5039C47.3796 11.6829 47.1038 11.9443 46.8818 12.2881C46.6598 12.6318 46.488 13.0472 46.3662 13.5342C46.2516 14.014 46.1943 14.5547 46.1943 15.1562V15.5859C46.1943 16.0944 46.2624 16.5671 46.3984 17.0039C46.5417 17.4336 46.7493 17.8096 47.0215 18.1318C47.2936 18.4541 47.623 18.7083 48.0098 18.8945C48.3965 19.0736 48.8369 19.1631 49.3311 19.1631C49.9541 19.1631 50.5091 19.0378 50.9961 18.7871C51.4831 18.5365 51.9056 18.182 52.2637 17.7236L53.6279 19.0449C53.3773 19.4102 53.0514 19.7611 52.6504 20.0977C52.2493 20.4271 51.7588 20.6956 51.1787 20.9033C50.6058 21.111 49.9398 21.2148 49.1807 21.2148ZM61.1797 9.37695V11.2676H54.627V9.37695H61.1797ZM56.5176 6.53027H59.1064V17.7881C59.1064 18.1462 59.1566 18.4219 59.2568 18.6152C59.3643 18.8014 59.5111 18.9268 59.6973 18.9912C59.8835 19.0557 60.1019 19.0879 60.3525 19.0879C60.5316 19.0879 60.7035 19.0771 60.8682 19.0557C61.0329 19.0342 61.1654 19.0127 61.2656 18.9912L61.2764 20.9678C61.0615 21.0322 60.8109 21.0895 60.5244 21.1396C60.2451 21.1898 59.9229 21.2148 59.5576 21.2148C58.9632 21.2148 58.4368 21.111 57.9785 20.9033C57.5202 20.6885 57.1621 20.3411 56.9043 19.8613C56.6465 19.3815 56.5176 18.7441 56.5176 17.9492V6.53027ZM73.9844 9.37695V11.2676H67.4316V9.37695H73.9844ZM69.3223 6.53027H71.9111V17.7881C71.9111 18.1462 71.9613 18.4219 72.0615 18.6152C72.1689 18.8014 72.3158 18.9268 72.502 18.9912C72.6882 19.0557 72.9066 19.0879 73.1572 19.0879C73.3363 19.0879 73.5081 19.0771 73.6729 19.0557C73.8376 19.0342 73.9701 19.0127 74.0703 18.9912L74.0811 20.9678C73.8662 21.0322 73.6156 21.0895 73.3291 21.1396C73.0498 21.1898 72.7275 21.2148 72.3623 21.2148C71.7679 21.2148 71.2415 21.111 70.7832 20.9033C70.3249 20.6885 69.9668 20.3411 69.709 19.8613C69.4512 19.3815 69.3223 18.7441 69.3223 17.9492V6.53027ZM78.5391 4.5V21H75.9609V4.5H78.5391ZM78.0879 14.7588L77.25 14.748C77.2572 13.946 77.3682 13.2048 77.583 12.5244C77.805 11.8441 78.113 11.2533 78.5068 10.752C78.9079 10.2435 79.3877 9.85319 79.9463 9.58105C80.5049 9.30176 81.1243 9.16211 81.8047 9.16211C82.3776 9.16211 82.8932 9.24089 83.3516 9.39844C83.8171 9.55599 84.2181 9.81022 84.5547 10.1611C84.8913 10.5049 85.1455 10.9561 85.3174 11.5146C85.4964 12.0661 85.5859 12.7393 85.5859 13.5342V21H82.9863V13.5127C82.9863 12.9541 82.904 12.5101 82.7393 12.1807C82.5817 11.8512 82.349 11.6149 82.041 11.4717C81.7331 11.3213 81.3571 11.2461 80.9131 11.2461C80.4476 11.2461 80.0358 11.3392 79.6777 11.5254C79.3268 11.7116 79.0332 11.9658 78.7969 12.2881C78.5605 12.6104 78.3815 12.9827 78.2598 13.4053C78.1452 13.8278 78.0879 14.279 78.0879 14.7588ZM93.3311 21.2148C92.4717 21.2148 91.6947 21.0752 91 20.7959C90.3125 20.5094 89.7253 20.112 89.2383 19.6035C88.7585 19.0951 88.3896 18.4971 88.1318 17.8096C87.874 17.1221 87.7451 16.3809 87.7451 15.5859V15.1562C87.7451 14.2467 87.8776 13.4232 88.1426 12.6855C88.4076 11.9479 88.7764 11.3177 89.249 10.7949C89.7217 10.265 90.2803 9.86035 90.9248 9.58105C91.5693 9.30176 92.2676 9.16211 93.0195 9.16211C93.8503 9.16211 94.5771 9.30176 95.2002 9.58105C95.8232 9.86035 96.3389 10.2542 96.7471 10.7627C97.1624 11.264 97.4704 11.862 97.6709 12.5566C97.8786 13.2513 97.9824 14.0176 97.9824 14.8555V15.9619H89.002V14.1035H95.4258V13.8994C95.4115 13.4339 95.3184 12.9971 95.1465 12.5889C94.9818 12.1807 94.7275 11.8512 94.3838 11.6006C94.04 11.3499 93.5817 11.2246 93.0088 11.2246C92.5791 11.2246 92.196 11.3177 91.8594 11.5039C91.5299 11.6829 91.2542 11.9443 91.0322 12.2881C90.8102 12.6318 90.6383 13.0472 90.5166 13.5342C90.402 14.014 90.3447 14.5547 90.3447 15.1562V15.5859C90.3447 16.0944 90.4128 16.5671 90.5488 17.0039C90.6921 17.4336 90.8997 17.8096 91.1719 18.1318C91.444 18.4541 91.7734 18.7083 92.1602 18.8945C92.5469 19.0736 92.9873 19.1631 93.4814 19.1631C94.1045 19.1631 94.6595 19.0378 95.1465 18.7871C95.6335 18.5365 96.056 18.182 96.4141 17.7236L97.7783 19.0449C97.5277 19.4102 97.2018 19.7611 96.8008 20.0977C96.3997 20.4271 95.9092 20.6956 95.3291 20.9033C94.7562 21.111 94.0902 21.2148 93.3311 21.2148ZM108.069 11.7402V21H105.48V9.37695H107.919L108.069 11.7402ZM107.65 14.7588L106.77 14.748C106.77 13.946 106.87 13.2048 107.07 12.5244C107.271 11.8441 107.564 11.2533 107.951 10.752C108.338 10.2435 108.818 9.85319 109.391 9.58105C109.971 9.30176 110.64 9.16211 111.399 9.16211C111.929 9.16211 112.413 9.24089 112.85 9.39844C113.294 9.54883 113.677 9.78874 113.999 10.1182C114.328 10.4476 114.579 10.8701 114.751 11.3857C114.93 11.9014 115.02 12.5244 115.02 13.2549V21H112.431V13.4805C112.431 12.9147 112.345 12.4707 112.173 12.1484C112.008 11.8262 111.768 11.597 111.453 11.4609C111.145 11.3177 110.776 11.2461 110.347 11.2461C109.86 11.2461 109.444 11.3392 109.101 11.5254C108.764 11.7116 108.488 11.9658 108.273 12.2881C108.059 12.6104 107.901 12.9827 107.801 13.4053C107.701 13.8278 107.65 14.279 107.65 14.7588ZM114.858 14.0713L113.645 14.3398C113.645 13.638 113.741 12.9756 113.935 12.3525C114.135 11.7223 114.425 11.1709 114.805 10.6982C115.191 10.2184 115.668 9.84245 116.233 9.57031C116.799 9.29818 117.447 9.16211 118.178 9.16211C118.772 9.16211 119.302 9.24447 119.768 9.40918C120.24 9.56673 120.641 9.81738 120.971 10.1611C121.3 10.5049 121.551 10.9525 121.723 11.5039C121.895 12.0482 121.98 12.707 121.98 13.4805V21H119.381V13.4697C119.381 12.8825 119.295 12.4277 119.123 12.1055C118.958 11.7832 118.722 11.5612 118.414 11.4395C118.106 11.3105 117.737 11.2461 117.308 11.2461C116.907 11.2461 116.552 11.3213 116.244 11.4717C115.943 11.6149 115.689 11.819 115.481 12.084C115.274 12.3418 115.116 12.639 115.009 12.9756C114.909 13.3122 114.858 13.6774 114.858 14.0713ZM129.769 21.2148C128.909 21.2148 128.132 21.0752 127.438 20.7959C126.75 20.5094 126.163 20.112 125.676 19.6035C125.196 19.0951 124.827 18.4971 124.569 17.8096C124.312 17.1221 124.183 16.3809 124.183 15.5859V15.1562C124.183 14.2467 124.315 13.4232 124.58 12.6855C124.845 11.9479 125.214 11.3177 125.687 10.7949C126.159 10.265 126.718 9.86035 127.362 9.58105C128.007 9.30176 128.705 9.16211 129.457 9.16211C130.288 9.16211 131.015 9.30176 131.638 9.58105C132.261 9.86035 132.776 10.2542 133.185 10.7627C133.6 11.264 133.908 11.862 134.108 12.5566C134.316 13.2513 134.42 14.0176 134.42 14.8555V15.9619H125.439V14.1035H131.863V13.8994C131.849 13.4339 131.756 12.9971 131.584 12.5889C131.419 12.1807 131.165 11.8512 130.821 11.6006C130.478 11.3499 130.019 11.2246 129.446 11.2246C129.017 11.2246 128.633 11.3177 128.297 11.5039C127.967 11.6829 127.692 11.9443 127.47 12.2881C127.248 12.6318 127.076 13.0472 126.954 13.5342C126.84 14.014 126.782 14.5547 126.782 15.1562V15.5859C126.782 16.0944 126.85 16.5671 126.986 17.0039C127.13 17.4336 127.337 17.8096 127.609 18.1318C127.882 18.4541 128.211 18.7083 128.598 18.8945C128.984 19.0736 129.425 19.1631 129.919 19.1631C130.542 19.1631 131.097 19.0378 131.584 18.7871C132.071 18.5365 132.493 18.182 132.852 17.7236L134.216 19.0449C133.965 19.4102 133.639 19.7611 133.238 20.0977C132.837 20.4271 132.347 20.6956 131.767 20.9033C131.194 21.111 130.528 21.2148 129.769 21.2148ZM139.007 11.8584V21H136.418V9.37695H138.856L139.007 11.8584ZM138.545 14.7588L137.707 14.748C137.714 13.9245 137.829 13.1689 138.051 12.4814C138.28 11.7939 138.595 11.2031 138.996 10.709C139.404 10.2148 139.891 9.83529 140.457 9.57031C141.023 9.29818 141.653 9.16211 142.348 9.16211C142.906 9.16211 143.411 9.24089 143.862 9.39844C144.321 9.54883 144.711 9.7959 145.033 10.1396C145.363 10.4834 145.613 10.931 145.785 11.4824C145.957 12.0267 146.043 12.6963 146.043 13.4912V21H143.443V13.4805C143.443 12.9219 143.361 12.4814 143.196 12.1592C143.039 11.8298 142.806 11.597 142.498 11.4609C142.197 11.3177 141.821 11.2461 141.37 11.2461C140.926 11.2461 140.529 11.3392 140.178 11.5254C139.827 11.7116 139.53 11.9658 139.286 12.2881C139.05 12.6104 138.867 12.9827 138.738 13.4053C138.609 13.8278 138.545 14.279 138.545 14.7588ZM155.679 18.2607V9.37695H158.278V21H155.829L155.679 18.2607ZM156.044 15.8438L156.914 15.8223C156.914 16.6029 156.828 17.3226 156.656 17.9814C156.484 18.6331 156.219 19.2025 155.861 19.6895C155.503 20.1693 155.045 20.5452 154.486 20.8174C153.928 21.0824 153.258 21.2148 152.478 21.2148C151.912 21.2148 151.393 21.1325 150.92 20.9678C150.447 20.8031 150.039 20.5488 149.695 20.2051C149.359 19.8613 149.097 19.4137 148.911 18.8623C148.725 18.3109 148.632 17.652 148.632 16.8857V9.37695H151.221V16.9072C151.221 17.3298 151.271 17.6842 151.371 17.9707C151.471 18.25 151.607 18.4756 151.779 18.6475C151.951 18.8193 152.152 18.9411 152.381 19.0127C152.61 19.0843 152.854 19.1201 153.111 19.1201C153.849 19.1201 154.429 18.9769 154.852 18.6904C155.281 18.3968 155.586 18.0029 155.765 17.5088C155.951 17.0146 156.044 16.4596 156.044 15.8438Z" fill="#0F172A"/>
</svg>
