<svg width="170" height="36" viewBox="0 0 170 36" fill="none" xmlns="http://www.w3.org/2000/svg">
<path d="M11.99 8C6.47 8 2 12.48 2 18C2 23.52 6.47 28 11.99 28C17.52 28 22 23.52 22 18C22 12.48 17.52 8 11.99 8ZM8.5 14C9.33 14 10 14.67 10 15.5C10 16.33 9.33 17 8.5 17C7.67 17 7 16.33 7 15.5C7 14.67 7.67 14 8.5 14ZM16.75 20.75C15.8 22.39 14.03 23.5 12 23.5C9.97 23.5 8.2 22.39 7.25 20.75C7.06 20.42 7.31 20 7.69 20H16.31C16.7 20 16.94 20.42 16.75 20.75ZM15.5 17C14.67 17 14 16.33 14 15.5C14 14.67 14.67 14 15.5 14C16.33 14 17 14.67 17 15.5C17 16.33 16.33 17 15.5 17Z" fill="#FF8C00"/>
<path d="M36.0312 11.5938V14.7812H26.1875V11.5938H36.0312ZM28.625 7.42188H33.125V23.4062C33.125 23.8958 33.1875 24.2708 33.3125 24.5312C33.4479 24.7917 33.6458 24.974 33.9062 25.0781C34.1667 25.1719 34.4948 25.2188 34.8906 25.2188C35.1719 25.2188 35.4219 25.2083 35.6406 25.1875C35.8698 25.1562 36.0625 25.125 36.2188 25.0938L36.2344 28.4062C35.849 28.5312 35.4323 28.6302 34.9844 28.7031C34.5365 28.776 34.0417 28.8125 33.5 28.8125C32.5104 28.8125 31.6458 28.651 30.9062 28.3281C30.1771 27.9948 29.6146 27.4635 29.2188 26.7344C28.8229 26.0052 28.625 25.0469 28.625 23.8594V7.42188ZM47.7188 24.6875V17.1562C47.7188 16.6146 47.6302 16.151 47.4531 15.7656C47.276 15.3698 47 15.0625 46.625 14.8438C46.2604 14.625 45.7865 14.5156 45.2031 14.5156C44.7031 14.5156 44.2708 14.6042 43.9062 14.7812C43.5417 14.9479 43.2604 15.1927 43.0625 15.5156C42.8646 15.8281 42.7656 16.1979 42.7656 16.625H38.2656C38.2656 15.9062 38.4323 15.224 38.7656 14.5781C39.099 13.9323 39.5833 13.3646 40.2188 12.875C40.8542 12.375 41.6094 11.9844 42.4844 11.7031C43.3698 11.4219 44.3594 11.2812 45.4531 11.2812C46.7656 11.2812 47.9323 11.5 48.9531 11.9375C49.974 12.375 50.776 13.0312 51.3594 13.9062C51.9531 14.7812 52.25 15.875 52.25 17.1875V24.4219C52.25 25.349 52.3073 26.1094 52.4219 26.7031C52.5365 27.2865 52.7031 27.7969 52.9219 28.2344V28.5H48.375C48.1562 28.0417 47.9896 27.4688 47.875 26.7812C47.7708 26.0833 47.7188 25.3854 47.7188 24.6875ZM48.3125 18.2031L48.3438 20.75H45.8281C45.2344 20.75 44.7188 20.8177 44.2812 20.9531C43.8438 21.0885 43.4844 21.2812 43.2031 21.5312C42.9219 21.7708 42.7135 22.0521 42.5781 22.375C42.4531 22.6979 42.3906 23.0521 42.3906 23.4375C42.3906 23.8229 42.4792 24.1719 42.6562 24.4844C42.8333 24.7865 43.0885 25.026 43.4219 25.2031C43.7552 25.3698 44.1458 25.4531 44.5938 25.4531C45.2708 25.4531 45.8594 25.3177 46.3594 25.0469C46.8594 24.776 47.2448 24.4427 47.5156 24.0469C47.7969 23.651 47.9427 23.276 47.9531 22.9219L49.1406 24.8281C48.974 25.2552 48.7448 25.6979 48.4531 26.1562C48.1719 26.6146 47.8125 27.0469 47.375 27.4531C46.9375 27.849 46.4115 28.1771 45.7969 28.4375C45.1823 28.6875 44.4531 28.8125 43.6094 28.8125C42.5365 28.8125 41.5625 28.599 40.6875 28.1719C39.8229 27.7344 39.1354 27.1354 38.625 26.375C38.125 25.6042 37.875 24.7292 37.875 23.75C37.875 22.8646 38.0417 22.0781 38.375 21.3906C38.7083 20.7031 39.1979 20.125 39.8438 19.6562C40.5 19.1771 41.3177 18.8177 42.2969 18.5781C43.276 18.3281 44.4115 18.2031 45.7031 18.2031H48.3125ZM60.2188 14.8438V35H55.7188V11.5938H59.8906L60.2188 14.8438ZM70.9219 19.8594V20.1875C70.9219 21.4167 70.776 22.5573 70.4844 23.6094C70.2031 24.6615 69.7865 25.5781 69.2344 26.3594C68.6823 27.1302 67.9948 27.7344 67.1719 28.1719C66.3594 28.599 65.4219 28.8125 64.3594 28.8125C63.3281 28.8125 62.4323 28.6042 61.6719 28.1875C60.9115 27.7708 60.2708 27.1875 59.75 26.4375C59.2396 25.6771 58.8281 24.7969 58.5156 23.7969C58.2031 22.7969 57.9635 21.724 57.7969 20.5781V19.7188C57.9635 18.4896 58.2031 17.3646 58.5156 16.3438C58.8281 15.3125 59.2396 14.4219 59.75 13.6719C60.2708 12.9115 60.9062 12.3229 61.6562 11.9062C62.4167 11.4896 63.3073 11.2812 64.3281 11.2812C65.401 11.2812 66.3438 11.4844 67.1562 11.8906C67.9792 12.2969 68.6667 12.8802 69.2188 13.6406C69.7812 14.401 70.2031 15.3073 70.4844 16.3594C70.776 17.4115 70.9219 18.5781 70.9219 19.8594ZM66.4062 20.1875V19.8594C66.4062 19.1406 66.3438 18.4792 66.2188 17.875C66.1042 17.2604 65.9167 16.724 65.6562 16.2656C65.4062 15.8073 65.0729 15.4531 64.6562 15.2031C64.25 14.9427 63.7552 14.8125 63.1719 14.8125C62.5573 14.8125 62.0312 14.9115 61.5938 15.1094C61.1667 15.3073 60.8177 15.5938 60.5469 15.9688C60.276 16.3438 60.0729 16.7917 59.9375 17.3125C59.8021 17.8333 59.7188 18.4219 59.6875 19.0781V21.25C59.7396 22.0208 59.8854 22.7135 60.125 23.3281C60.3646 23.9323 60.7344 24.4115 61.2344 24.7656C61.7344 25.1198 62.3906 25.2969 63.2031 25.2969C63.7969 25.2969 64.2969 25.1667 64.7031 24.9062C65.1094 24.6354 65.4375 24.2656 65.6875 23.7969C65.9479 23.3281 66.1302 22.7865 66.2344 22.1719C66.349 21.5573 66.4062 20.8958 66.4062 20.1875ZM89.0938 24.9844V28.5H73.5312V25.5L80.8906 17.6094C81.6302 16.7865 82.2135 16.0625 82.6406 15.4375C83.0677 14.8021 83.375 14.2344 83.5625 13.7344C83.7604 13.224 83.8594 12.7396 83.8594 12.2812C83.8594 11.5938 83.7448 11.0052 83.5156 10.5156C83.2865 10.0156 82.9479 9.63021 82.5 9.35938C82.0625 9.08854 81.5208 8.95312 80.875 8.95312C80.1875 8.95312 79.5938 9.11979 79.0938 9.45312C78.6042 9.78646 78.2292 10.25 77.9688 10.8438C77.7188 11.4375 77.5938 12.1094 77.5938 12.8594H73.0781C73.0781 11.5052 73.401 10.2656 74.0469 9.14062C74.6927 8.00521 75.6042 7.10417 76.7812 6.4375C77.9583 5.76042 79.3542 5.42188 80.9688 5.42188C82.5625 5.42188 83.9062 5.68229 85 6.20312C86.1042 6.71354 86.9375 7.45312 87.5 8.42188C88.0729 9.38021 88.3594 10.526 88.3594 11.8594C88.3594 12.6094 88.2396 13.3438 88 14.0625C87.7604 14.7708 87.4167 15.4792 86.9688 16.1875C86.5312 16.8854 86 17.5938 85.375 18.3125C84.75 19.0312 84.0573 19.776 83.2969 20.5469L79.3438 24.9844H89.0938ZM101.234 23.8281C101.234 23.5052 101.141 23.2135 100.953 22.9531C100.766 22.6927 100.417 22.4531 99.9062 22.2344C99.4062 22.0052 98.6823 21.7969 97.7344 21.6094C96.8802 21.4219 96.0833 21.1875 95.3438 20.9062C94.6146 20.6146 93.9792 20.2656 93.4375 19.8594C92.9062 19.4531 92.4896 18.974 92.1875 18.4219C91.8854 17.8594 91.7344 17.2188 91.7344 16.5C91.7344 15.7917 91.8854 15.125 92.1875 14.5C92.5 13.875 92.9427 13.3229 93.5156 12.8438C94.099 12.3542 94.8073 11.974 95.6406 11.7031C96.4844 11.4219 97.4323 11.2812 98.4844 11.2812C99.9531 11.2812 101.214 11.5156 102.266 11.9844C103.328 12.4531 104.141 13.099 104.703 13.9219C105.276 14.7344 105.562 15.6615 105.562 16.7031H101.062C101.062 16.2656 100.969 15.875 100.781 15.5312C100.604 15.1771 100.323 14.901 99.9375 14.7031C99.5625 14.4948 99.0729 14.3906 98.4688 14.3906C97.9688 14.3906 97.5365 14.4792 97.1719 14.6562C96.8073 14.8229 96.526 15.0521 96.3281 15.3438C96.1406 15.625 96.0469 15.9375 96.0469 16.2812C96.0469 16.5417 96.099 16.776 96.2031 16.9844C96.3177 17.1823 96.5 17.3646 96.75 17.5312C97 17.6979 97.3229 17.8542 97.7188 18C98.125 18.1354 98.625 18.2604 99.2188 18.375C100.438 18.625 101.526 18.9531 102.484 19.3594C103.443 19.7552 104.203 20.2969 104.766 20.9844C105.328 21.6615 105.609 22.5521 105.609 23.6562C105.609 24.4062 105.443 25.0938 105.109 25.7188C104.776 26.3438 104.297 26.8906 103.672 27.3594C103.047 27.8177 102.297 28.1771 101.422 28.4375C100.557 28.6875 99.5833 28.8125 98.5 28.8125C96.9271 28.8125 95.5938 28.5312 94.5 27.9688C93.4167 27.4062 92.5938 26.6927 92.0312 25.8281C91.4792 24.9531 91.2031 24.0573 91.2031 23.1406H95.4688C95.4896 23.7552 95.6458 24.25 95.9375 24.625C96.2396 25 96.6198 25.2708 97.0781 25.4375C97.5469 25.6042 98.0521 25.6875 98.5938 25.6875C99.1771 25.6875 99.6615 25.6094 100.047 25.4531C100.432 25.2865 100.724 25.0677 100.922 24.7969C101.13 24.5156 101.234 24.1927 101.234 23.8281ZM116.312 28.8125C115 28.8125 113.823 28.6042 112.781 28.1875C111.74 27.7604 110.854 27.1719 110.125 26.4219C109.406 25.6719 108.854 24.8021 108.469 23.8125C108.083 22.8125 107.891 21.75 107.891 20.625V20C107.891 18.7188 108.073 17.5469 108.438 16.4844C108.802 15.4219 109.323 14.5 110 13.7188C110.688 12.9375 111.521 12.3385 112.5 11.9219C113.479 11.4948 114.583 11.2812 115.812 11.2812C117.01 11.2812 118.073 11.4792 119 11.875C119.927 12.2708 120.703 12.8333 121.328 13.5625C121.964 14.2917 122.443 15.1667 122.766 16.1875C123.089 17.1979 123.25 18.3229 123.25 19.5625V21.4375H109.812V18.4375H118.828V18.0938C118.828 17.4688 118.714 16.9115 118.484 16.4219C118.266 15.9219 117.932 15.526 117.484 15.2344C117.036 14.9427 116.464 14.7969 115.766 14.7969C115.172 14.7969 114.661 14.9271 114.234 15.1875C113.807 15.4479 113.458 15.8125 113.188 16.2812C112.927 16.75 112.729 17.3021 112.594 17.9375C112.469 18.5625 112.406 19.25 112.406 20V20.625C112.406 21.3021 112.5 21.9271 112.688 22.5C112.885 23.0729 113.161 23.5677 113.516 23.9844C113.88 24.401 114.318 24.724 114.828 24.9531C115.349 25.1823 115.938 25.2969 116.594 25.2969C117.406 25.2969 118.161 25.1406 118.859 24.8281C119.568 24.5052 120.177 24.0208 120.688 23.375L122.875 25.75C122.521 26.2604 122.036 26.75 121.422 27.2188C120.818 27.6875 120.089 28.0729 119.234 28.375C118.38 28.6667 117.406 28.8125 116.312 28.8125ZM130.312 15.2812V28.5H125.812V11.5938H130.047L130.312 15.2812ZM135.406 11.4844L135.328 15.6562C135.109 15.625 134.844 15.599 134.531 15.5781C134.229 15.5469 133.953 15.5312 133.703 15.5312C133.068 15.5312 132.516 15.6146 132.047 15.7812C131.589 15.9375 131.203 16.1719 130.891 16.4844C130.589 16.7969 130.359 17.1771 130.203 17.625C130.057 18.0729 129.974 18.5833 129.953 19.1562L129.047 18.875C129.047 17.7812 129.156 16.776 129.375 15.8594C129.594 14.9323 129.911 14.125 130.328 13.4375C130.755 12.75 131.276 12.2188 131.891 11.8438C132.505 11.4688 133.208 11.2812 134 11.2812C134.25 11.2812 134.505 11.3021 134.766 11.3438C135.026 11.375 135.24 11.4219 135.406 11.4844ZM143.562 25.2188L147.312 11.5938H152.016L146.312 28.5H143.469L143.562 25.2188ZM140.984 11.5938L144.75 25.2344L144.828 28.5H141.969L136.266 11.5938H140.984ZM161.594 28.8125C160.281 28.8125 159.104 28.6042 158.062 28.1875C157.021 27.7604 156.135 27.1719 155.406 26.4219C154.688 25.6719 154.135 24.8021 153.75 23.8125C153.365 22.8125 153.172 21.75 153.172 20.625V20C153.172 18.7188 153.354 17.5469 153.719 16.4844C154.083 15.4219 154.604 14.5 155.281 13.7188C155.969 12.9375 156.802 12.3385 157.781 11.9219C158.76 11.4948 159.865 11.2812 161.094 11.2812C162.292 11.2812 163.354 11.4792 164.281 11.875C165.208 12.2708 165.984 12.8333 166.609 13.5625C167.245 14.2917 167.724 15.1667 168.047 16.1875C168.37 17.1979 168.531 18.3229 168.531 19.5625V21.4375H155.094V18.4375H164.109V18.0938C164.109 17.4688 163.995 16.9115 163.766 16.4219C163.547 15.9219 163.214 15.526 162.766 15.2344C162.318 14.9427 161.745 14.7969 161.047 14.7969C160.453 14.7969 159.943 14.9271 159.516 15.1875C159.089 15.4479 158.74 15.8125 158.469 16.2812C158.208 16.75 158.01 17.3021 157.875 17.9375C157.75 18.5625 157.688 19.25 157.688 20V20.625C157.688 21.3021 157.781 21.9271 157.969 22.5C158.167 23.0729 158.443 23.5677 158.797 23.9844C159.161 24.401 159.599 24.724 160.109 24.9531C160.63 25.1823 161.219 25.2969 161.875 25.2969C162.688 25.2969 163.443 25.1406 164.141 24.8281C164.849 24.5052 165.458 24.0208 165.969 23.375L168.156 25.75C167.802 26.2604 167.318 26.75 166.703 27.2188C166.099 27.6875 165.37 28.0729 164.516 28.375C163.661 28.6667 162.688 28.8125 161.594 28.8125Z" fill="#fff"/>
</svg>
