<svg width="115" height="26" viewBox="0 0 115 26" fill="none" xmlns="http://www.w3.org/2000/svg">
<path d="M0 22.54H22V0.54H0V22.54ZM35.0088 15.167H30.9375V13.0293H35.0088C35.7178 13.0293 36.2907 12.9147 36.7275 12.6855C37.1644 12.4564 37.4831 12.1413 37.6836 11.7402C37.8913 11.332 37.9951 10.8665 37.9951 10.3438C37.9951 9.84961 37.8913 9.3877 37.6836 8.95801C37.4831 8.52116 37.1644 8.17025 36.7275 7.90527C36.2907 7.6403 35.7178 7.50781 35.0088 7.50781H31.7646V21H29.0684V5.35938H35.0088C36.2191 5.35938 37.2467 5.57422 38.0918 6.00391C38.944 6.42643 39.5921 7.01367 40.0361 7.76562C40.4801 8.51042 40.7021 9.36263 40.7021 10.3223C40.7021 11.332 40.4801 12.1986 40.0361 12.9219C39.5921 13.6452 38.944 14.2002 38.0918 14.5869C37.2467 14.9736 36.2191 15.167 35.0088 15.167ZM49.2852 18.6689V13.126C49.2852 12.7106 49.21 12.3525 49.0596 12.0518C48.9092 11.751 48.68 11.5182 48.3721 11.3535C48.0713 11.1888 47.6917 11.1064 47.2334 11.1064C46.8109 11.1064 46.4456 11.1781 46.1377 11.3213C45.8298 11.4645 45.5898 11.6579 45.418 11.9014C45.2461 12.1449 45.1602 12.4206 45.1602 12.7285H42.582C42.582 12.2702 42.693 11.8262 42.915 11.3965C43.137 10.9668 43.4593 10.5837 43.8818 10.2471C44.3044 9.91048 44.8092 9.64551 45.3965 9.45215C45.9837 9.25879 46.6426 9.16211 47.373 9.16211C48.2467 9.16211 49.0202 9.30892 49.6934 9.60254C50.3737 9.89616 50.9072 10.3402 51.2939 10.9346C51.6878 11.5218 51.8848 12.2594 51.8848 13.1475V18.3145C51.8848 18.8444 51.9206 19.3206 51.9922 19.7432C52.071 20.1585 52.182 20.5202 52.3252 20.8281V21H49.6719C49.5501 20.7207 49.4535 20.3662 49.3818 19.9365C49.3174 19.4997 49.2852 19.0771 49.2852 18.6689ZM49.6611 13.9316L49.6826 15.5322H47.8242C47.3444 15.5322 46.9219 15.5788 46.5566 15.6719C46.1914 15.7578 45.887 15.8867 45.6436 16.0586C45.4001 16.2305 45.2174 16.4382 45.0957 16.6816C44.974 16.9251 44.9131 17.2008 44.9131 17.5088C44.9131 17.8167 44.9847 18.0996 45.1279 18.3574C45.2712 18.6081 45.4788 18.805 45.751 18.9482C46.0303 19.0915 46.3669 19.1631 46.7607 19.1631C47.2907 19.1631 47.7526 19.0557 48.1465 18.8408C48.5475 18.6188 48.8626 18.3503 49.0918 18.0352C49.321 17.7129 49.4427 17.4085 49.457 17.1221L50.2949 18.2715C50.209 18.5651 50.0622 18.8802 49.8545 19.2168C49.6468 19.5534 49.3747 19.8757 49.0381 20.1836C48.7087 20.4844 48.3112 20.7314 47.8457 20.9248C47.3874 21.1182 46.8574 21.2148 46.2559 21.2148C45.4967 21.2148 44.82 21.0645 44.2256 20.7637C43.6312 20.4557 43.1657 20.0439 42.8291 19.5283C42.4925 19.0055 42.3242 18.4147 42.3242 17.7559C42.3242 17.14 42.4388 16.5957 42.668 16.123C42.9043 15.6432 43.248 15.2422 43.6992 14.9199C44.1576 14.5977 44.7161 14.3542 45.375 14.1895C46.0339 14.0176 46.7858 13.9316 47.6309 13.9316H49.6611ZM57.793 19.7324L60.9512 9.37695H63.7227L59.0605 22.7725C58.9531 23.0589 58.8135 23.3704 58.6416 23.707C58.4697 24.0436 58.2441 24.3623 57.9648 24.6631C57.6927 24.971 57.3525 25.2181 56.9443 25.4043C56.5361 25.5977 56.042 25.6943 55.4619 25.6943C55.2327 25.6943 55.0107 25.6729 54.7959 25.6299C54.5882 25.5941 54.3913 25.5547 54.2051 25.5117L54.1943 23.5352C54.266 23.5423 54.3519 23.5495 54.4521 23.5566C54.5596 23.5638 54.6455 23.5674 54.71 23.5674C55.1396 23.5674 55.4977 23.5137 55.7842 23.4062C56.0706 23.306 56.3034 23.1413 56.4824 22.9121C56.6686 22.6829 56.8262 22.375 56.9551 21.9883L57.793 19.7324ZM56.0098 9.37695L58.7705 18.0781L59.2324 20.8066L57.4385 21.2686L53.2168 9.37695H56.0098ZM77.2363 18.6689V13.126C77.2363 12.7106 77.1611 12.3525 77.0107 12.0518C76.8604 11.751 76.6312 11.5182 76.3232 11.3535C76.0225 11.1888 75.6429 11.1064 75.1846 11.1064C74.762 11.1064 74.3968 11.1781 74.0889 11.3213C73.7809 11.4645 73.541 11.6579 73.3691 11.9014C73.1973 12.1449 73.1113 12.4206 73.1113 12.7285H70.5332C70.5332 12.2702 70.6442 11.8262 70.8662 11.3965C71.0882 10.9668 71.4105 10.5837 71.833 10.2471C72.2555 9.91048 72.7604 9.64551 73.3477 9.45215C73.9349 9.25879 74.5938 9.16211 75.3242 9.16211C76.1979 9.16211 76.9714 9.30892 77.6445 9.60254C78.3249 9.89616 78.8584 10.3402 79.2451 10.9346C79.639 11.5218 79.8359 12.2594 79.8359 13.1475V18.3145C79.8359 18.8444 79.8717 19.3206 79.9434 19.7432C80.0221 20.1585 80.1331 20.5202 80.2764 20.8281V21H77.623C77.5013 20.7207 77.4046 20.3662 77.333 19.9365C77.2686 19.4997 77.2363 19.0771 77.2363 18.6689ZM77.6123 13.9316L77.6338 15.5322H75.7754C75.2956 15.5322 74.873 15.5788 74.5078 15.6719C74.1426 15.7578 73.8382 15.8867 73.5947 16.0586C73.3512 16.2305 73.1686 16.4382 73.0469 16.6816C72.9251 16.9251 72.8643 17.2008 72.8643 17.5088C72.8643 17.8167 72.9359 18.0996 73.0791 18.3574C73.2223 18.6081 73.43 18.805 73.7021 18.9482C73.9814 19.0915 74.318 19.1631 74.7119 19.1631C75.2419 19.1631 75.7038 19.0557 76.0977 18.8408C76.4987 18.6188 76.8138 18.3503 77.043 18.0352C77.2721 17.7129 77.3939 17.4085 77.4082 17.1221L78.2461 18.2715C78.1602 18.5651 78.0133 18.8802 77.8057 19.2168C77.598 19.5534 77.3258 19.8757 76.9893 20.1836C76.6598 20.4844 76.2624 20.7314 75.7969 20.9248C75.3385 21.1182 74.8086 21.2148 74.207 21.2148C73.4479 21.2148 72.7712 21.0645 72.1768 20.7637C71.5824 20.4557 71.1169 20.0439 70.7803 19.5283C70.4437 19.0055 70.2754 18.4147 70.2754 17.7559C70.2754 17.14 70.39 16.5957 70.6191 16.123C70.8555 15.6432 71.1992 15.2422 71.6504 14.9199C72.1087 14.5977 72.6673 14.3542 73.3262 14.1895C73.985 14.0176 74.737 13.9316 75.582 13.9316H77.6123ZM88.0322 4.5H90.6211V18.5186L90.374 21H88.0322V4.5ZM98.2051 15.0811V15.3066C98.2051 16.166 98.1084 16.9574 97.915 17.6807C97.7288 18.3968 97.4424 19.0199 97.0557 19.5498C96.6761 20.0798 96.2035 20.4915 95.6377 20.7852C95.0791 21.0716 94.431 21.2148 93.6934 21.2148C92.9701 21.2148 92.3398 21.0788 91.8027 20.8066C91.2656 20.5345 90.8145 20.1478 90.4492 19.6465C90.0911 19.1452 89.8011 18.5472 89.5791 17.8525C89.3571 17.1579 89.1995 16.3916 89.1064 15.5537V14.834C89.1995 13.9889 89.3571 13.2227 89.5791 12.5352C89.8011 11.8405 90.0911 11.2425 90.4492 10.7412C90.8145 10.2327 91.262 9.84245 91.792 9.57031C92.3291 9.29818 92.9557 9.16211 93.6719 9.16211C94.4167 9.16211 95.0719 9.30534 95.6377 9.5918C96.2106 9.87826 96.6868 10.2865 97.0664 10.8164C97.446 11.3392 97.7288 11.9622 97.915 12.6855C98.1084 13.4089 98.2051 14.2074 98.2051 15.0811ZM95.6162 15.3066V15.0811C95.6162 14.5583 95.5732 14.0677 95.4873 13.6094C95.4014 13.1439 95.2581 12.7357 95.0576 12.3848C94.8643 12.0339 94.5993 11.7581 94.2627 11.5576C93.9333 11.3499 93.5215 11.2461 93.0273 11.2461C92.569 11.2461 92.1751 11.3249 91.8457 11.4824C91.5163 11.64 91.2406 11.8548 91.0186 12.127C90.7965 12.3991 90.6211 12.7142 90.4922 13.0723C90.3704 13.4303 90.2881 13.8171 90.2451 14.2324V16.1768C90.3096 16.7139 90.4456 17.208 90.6533 17.6592C90.8682 18.1032 91.1689 18.4613 91.5557 18.7334C91.9424 18.9984 92.4401 19.1309 93.0488 19.1309C93.5286 19.1309 93.9333 19.0342 94.2627 18.8408C94.5921 18.6475 94.8535 18.3789 95.0469 18.0352C95.2474 17.6842 95.3906 17.276 95.4766 16.8105C95.5697 16.3451 95.6162 15.8438 95.6162 15.3066ZM103.168 9.37695V21H100.568V9.37695H103.168ZM100.396 6.32617C100.396 5.93229 100.525 5.60645 100.783 5.34863C101.048 5.08366 101.413 4.95117 101.879 4.95117C102.337 4.95117 102.699 5.08366 102.964 5.34863C103.229 5.60645 103.361 5.93229 103.361 6.32617C103.361 6.71289 103.229 7.03516 102.964 7.29297C102.699 7.55078 102.337 7.67969 101.879 7.67969C101.413 7.67969 101.048 7.55078 100.783 7.29297C100.525 7.03516 100.396 6.71289 100.396 6.32617ZM108.775 4.5V21H106.176V4.5H108.775ZM114.383 4.5V21H111.783V4.5H114.383Z" fill="#0F172A"/>
</svg>
