<svg width="436" height="53" viewBox="0 0 436 53" fill="none" xmlns="http://www.w3.org/2000/svg">
<rect x="7" y="10.8147" width="427" height="8" rx="4" fill="#D9D9D9"/>
<rect x="7" y="10.8147" width="18" height="8" rx="4" fill="#EA580C"/>
<rect x="47" y="10.8147" width="3" height="8" fill="#E1E1E1"/>
<rect x="90" y="10.8147" width="3" height="8" fill="#E1E1E1"/>
<rect x="133" y="10.8147" width="3" height="8" fill="#E1E1E1"/>
<rect x="176" y="10.8147" width="3" height="8" fill="#E1E1E1"/>
<rect x="219" y="10.8147" width="3" height="8" fill="#E1E1E1"/>
<rect x="262" y="10.8147" width="3" height="8" fill="#E1E1E1"/>
<rect x="305" y="10.8147" width="3" height="8" fill="#E1E1E1"/>
<rect x="348" y="10.8147" width="3" height="8" fill="#E1E1E1"/>
<rect x="391" y="10.8147" width="3" height="8" fill="#E1E1E1"/>
<rect x="11.5" y="3.3147" width="23" height="23" rx="11.5" fill="white" stroke="#D5D7D8"/>
<path d="M11.6125 36.0758V44.8147H10.171V37.7865L8.03564 38.5103V37.3199L11.4391 36.0758H11.6125Z" fill="#B0B5B9"/>
<path d="M416.65 36.0758V44.8147H415.209V37.7865L413.073 38.5103V37.3199L416.477 36.0758H416.65ZM425.353 39.7305V41.1541C425.353 41.8359 425.285 42.4181 425.15 42.9006C425.018 43.3792 424.827 43.7679 424.576 44.067C424.324 44.3661 424.023 44.5854 423.672 44.725C423.325 44.8645 422.937 44.9343 422.506 44.9343C422.163 44.9343 421.844 44.8905 421.549 44.8027C421.258 44.715 420.995 44.5774 420.759 44.39C420.524 44.2026 420.323 43.9613 420.155 43.6663C419.992 43.3672 419.864 43.0103 419.772 42.5956C419.685 42.1809 419.641 41.7004 419.641 41.1541V39.7305C419.641 39.0446 419.709 38.4664 419.844 37.9958C419.98 37.5213 420.173 37.1365 420.424 36.8414C420.676 36.5424 420.975 36.325 421.322 36.1895C421.673 36.0539 422.063 35.9861 422.494 35.9861C422.841 35.9861 423.16 36.0299 423.451 36.1177C423.746 36.2014 424.009 36.335 424.241 36.5184C424.476 36.7019 424.675 36.9411 424.839 37.2362C425.006 37.5273 425.134 37.8802 425.222 38.2949C425.309 38.7056 425.353 39.1842 425.353 39.7305ZM423.912 41.3574V39.5151C423.912 39.1682 423.892 38.8632 423.852 38.6C423.812 38.3328 423.752 38.1075 423.672 37.9241C423.597 37.7367 423.501 37.5851 423.385 37.4695C423.27 37.3499 423.138 37.2641 422.99 37.2123C422.843 37.1565 422.677 37.1285 422.494 37.1285C422.271 37.1285 422.071 37.1724 421.896 37.2601C421.72 37.3439 421.573 37.4795 421.453 37.6669C421.334 37.8543 421.242 38.1015 421.178 38.4086C421.118 38.7116 421.088 39.0805 421.088 39.5151V41.3574C421.088 41.7083 421.108 42.0174 421.148 42.2845C421.188 42.5517 421.248 42.781 421.328 42.9724C421.407 43.1598 421.503 43.3153 421.615 43.439C421.73 43.5586 421.862 43.6463 422.01 43.7021C422.161 43.758 422.327 43.7859 422.506 43.7859C422.733 43.7859 422.935 43.742 423.11 43.6543C423.286 43.5666 423.433 43.427 423.553 43.2356C423.672 43.0402 423.762 42.787 423.822 42.476C423.882 42.1649 423.912 41.7921 423.912 41.3574ZM432.316 39.7305V41.1541C432.316 41.8359 432.248 42.4181 432.112 42.9006C431.981 43.3792 431.789 43.7679 431.538 44.067C431.287 44.3661 430.986 44.5854 430.635 44.725C430.288 44.8645 429.899 44.9343 429.468 44.9343C429.125 44.9343 428.806 44.8905 428.511 44.8027C428.22 44.715 427.957 44.5774 427.722 44.39C427.487 44.2026 427.285 43.9613 427.118 43.6663C426.954 43.3672 426.827 43.0103 426.735 42.5956C426.647 42.1809 426.603 41.7004 426.603 41.1541V39.7305C426.603 39.0446 426.671 38.4664 426.807 37.9958C426.942 37.5213 427.136 37.1365 427.387 36.8414C427.638 36.5424 427.937 36.325 428.284 36.1895C428.635 36.0539 429.026 35.9861 429.456 35.9861C429.803 35.9861 430.122 36.0299 430.413 36.1177C430.709 36.2014 430.972 36.335 431.203 36.5184C431.438 36.7019 431.638 36.9411 431.801 37.2362C431.969 37.5273 432.096 37.8802 432.184 38.2949C432.272 38.7056 432.316 39.1842 432.316 39.7305ZM430.874 41.3574V39.5151C430.874 39.1682 430.854 38.8632 430.814 38.6C430.774 38.3328 430.715 38.1075 430.635 37.9241C430.559 37.7367 430.463 37.5851 430.348 37.4695C430.232 37.3499 430.1 37.2641 429.953 37.2123C429.805 37.1565 429.64 37.1285 429.456 37.1285C429.233 37.1285 429.034 37.1724 428.858 37.2601C428.683 37.3439 428.535 37.4795 428.416 37.6669C428.296 37.8543 428.204 38.1015 428.141 38.4086C428.081 38.7116 428.051 39.0805 428.051 39.5151V41.3574C428.051 41.7083 428.071 42.0174 428.111 42.2845C428.15 42.5517 428.21 42.781 428.29 42.9724C428.37 43.1598 428.465 43.3153 428.577 43.439C428.693 43.5586 428.824 43.6463 428.972 43.7021C429.123 43.758 429.289 43.7859 429.468 43.7859C429.696 43.7859 429.897 43.742 430.073 43.6543C430.248 43.5666 430.396 43.427 430.515 43.2356C430.635 43.0402 430.724 42.787 430.784 42.476C430.844 42.1649 430.874 41.7921 430.874 41.3574Z" fill="#B0B5B9"/>
</svg>
