<svg width="436" height="53" viewBox="0 0 436 53" fill="none" xmlns="http://www.w3.org/2000/svg">
<rect x="7" y="11" width="427" height="8" rx="4" fill="#D9D9D9"/>
<rect x="7" y="11" width="129" height="8" rx="4" fill="#EA580C"/>
<rect x="47" y="11" width="3" height="8" fill="#E1E1E1"/>
<rect x="90" y="11" width="3" height="8" fill="#E1E1E1"/>
<rect x="133" y="11" width="3" height="8" fill="#E1E1E1"/>
<rect x="176" y="11" width="3" height="8" fill="#E1E1E1"/>
<rect x="219" y="11" width="3" height="8" fill="#E1E1E1"/>
<rect x="262" y="11" width="3" height="8" fill="#E1E1E1"/>
<rect x="305" y="11" width="3" height="8" fill="#E1E1E1"/>
<rect x="348" y="11" width="3" height="8" fill="#E1E1E1"/>
<rect x="391" y="11" width="3" height="8" fill="#E1E1E1"/>
<rect x="81.5" y="3.5" width="23" height="23" rx="11.5" fill="white" stroke="#D5D7D8"/>
<path d="M11.6125 36.2611V45H10.171V37.9718L8.03564 38.6956V37.5052L11.4391 36.2611H11.6125Z" fill="#B0B5B9"/>
<path d="M416.65 36.2611V45H415.209V37.9718L413.073 38.6956V37.5052L416.477 36.2611H416.65ZM425.353 39.9158V41.3394C425.353 42.0212 425.285 42.6034 425.15 43.0859C425.018 43.5645 424.827 43.9532 424.576 44.2523C424.324 44.5514 424.023 44.7707 423.672 44.9103C423.325 45.0498 422.937 45.1196 422.506 45.1196C422.163 45.1196 421.844 45.0758 421.549 44.988C421.258 44.9003 420.995 44.7627 420.759 44.5753C420.524 44.3879 420.323 44.1466 420.155 43.8516C419.992 43.5525 419.864 43.1956 419.772 42.7809C419.685 42.3662 419.641 41.8857 419.641 41.3394V39.9158C419.641 39.2299 419.709 38.6517 419.844 38.1812C419.98 37.7066 420.173 37.3218 420.424 37.0267C420.676 36.7277 420.975 36.5103 421.322 36.3748C421.673 36.2392 422.063 36.1714 422.494 36.1714C422.841 36.1714 423.16 36.2153 423.451 36.303C423.746 36.3867 424.009 36.5203 424.241 36.7037C424.476 36.8872 424.675 37.1264 424.839 37.4215C425.006 37.7126 425.134 38.0655 425.222 38.4802C425.309 38.891 425.353 39.3695 425.353 39.9158ZM423.912 41.5427V39.7004C423.912 39.3535 423.892 39.0485 423.852 38.7853C423.812 38.5181 423.752 38.2928 423.672 38.1094C423.597 37.922 423.501 37.7704 423.385 37.6548C423.27 37.5352 423.138 37.4494 422.99 37.3976C422.843 37.3418 422.677 37.3138 422.494 37.3138C422.271 37.3138 422.071 37.3577 421.896 37.4454C421.72 37.5292 421.573 37.6648 421.453 37.8522C421.334 38.0396 421.242 38.2868 421.178 38.5939C421.118 38.8969 421.088 39.2658 421.088 39.7004V41.5427C421.088 41.8936 421.108 42.2027 421.148 42.4698C421.188 42.737 421.248 42.9663 421.328 43.1577C421.407 43.3451 421.503 43.5007 421.615 43.6243C421.73 43.7439 421.862 43.8316 422.01 43.8875C422.161 43.9433 422.327 43.9712 422.506 43.9712C422.733 43.9712 422.935 43.9273 423.11 43.8396C423.286 43.7519 423.433 43.6123 423.553 43.4209C423.672 43.2255 423.762 42.9723 423.822 42.6613C423.882 42.3502 423.912 41.9774 423.912 41.5427ZM432.316 39.9158V41.3394C432.316 42.0212 432.248 42.6034 432.112 43.0859C431.981 43.5645 431.789 43.9532 431.538 44.2523C431.287 44.5514 430.986 44.7707 430.635 44.9103C430.288 45.0498 429.899 45.1196 429.468 45.1196C429.125 45.1196 428.806 45.0758 428.511 44.988C428.22 44.9003 427.957 44.7627 427.722 44.5753C427.487 44.3879 427.285 44.1466 427.118 43.8516C426.954 43.5525 426.827 43.1956 426.735 42.7809C426.647 42.3662 426.603 41.8857 426.603 41.3394V39.9158C426.603 39.2299 426.671 38.6517 426.807 38.1812C426.942 37.7066 427.136 37.3218 427.387 37.0267C427.638 36.7277 427.937 36.5103 428.284 36.3748C428.635 36.2392 429.026 36.1714 429.456 36.1714C429.803 36.1714 430.122 36.2153 430.413 36.303C430.709 36.3867 430.972 36.5203 431.203 36.7037C431.438 36.8872 431.638 37.1264 431.801 37.4215C431.969 37.7126 432.096 38.0655 432.184 38.4802C432.272 38.891 432.316 39.3695 432.316 39.9158ZM430.874 41.5427V39.7004C430.874 39.3535 430.854 39.0485 430.814 38.7853C430.774 38.5181 430.715 38.2928 430.635 38.1094C430.559 37.922 430.463 37.7704 430.348 37.6548C430.232 37.5352 430.1 37.4494 429.953 37.3976C429.805 37.3418 429.64 37.3138 429.456 37.3138C429.233 37.3138 429.034 37.3577 428.858 37.4454C428.683 37.5292 428.535 37.6648 428.416 37.8522C428.296 38.0396 428.204 38.2868 428.141 38.5939C428.081 38.8969 428.051 39.2658 428.051 39.7004V41.5427C428.051 41.8936 428.071 42.2027 428.111 42.4698C428.15 42.737 428.21 42.9663 428.29 43.1577C428.37 43.3451 428.465 43.5007 428.577 43.6243C428.693 43.7439 428.824 43.8316 428.972 43.8875C429.123 43.9433 429.289 43.9712 429.468 43.9712C429.696 43.9712 429.897 43.9273 430.073 43.8396C430.248 43.7519 430.396 43.6123 430.515 43.4209C430.635 43.2255 430.724 42.9723 430.784 42.6613C430.844 42.3502 430.874 41.9774 430.874 41.5427Z" fill="#B0B5B9"/>
</svg>
