<svg width="189" height="23" viewBox="0 0 189 23" fill="none" xmlns="http://www.w3.org/2000/svg">
<path d="M0 22.54H22V0.54H0V22.54ZM38.3066 15.9082H40.9922C40.9062 16.9323 40.6198 17.8454 40.1328 18.6475C39.6458 19.4424 38.9619 20.069 38.0811 20.5273C37.2002 20.9857 36.1296 21.2148 34.8691 21.2148C33.9023 21.2148 33.0322 21.043 32.2588 20.6992C31.4854 20.3483 30.8229 19.8542 30.2715 19.2168C29.7201 18.5723 29.2975 17.7952 29.0039 16.8857C28.7174 15.9762 28.5742 14.9593 28.5742 13.835V12.5352C28.5742 11.4108 28.721 10.3939 29.0146 9.48438C29.3154 8.57487 29.7451 7.79785 30.3037 7.15332C30.8623 6.50163 31.5319 6.00391 32.3125 5.66016C33.1003 5.31641 33.9847 5.14453 34.9658 5.14453C36.2119 5.14453 37.2646 5.3737 38.124 5.83203C38.9834 6.29036 39.6494 6.92415 40.1221 7.7334C40.6019 8.54264 40.8955 9.47005 41.0029 10.5156H38.3174C38.2458 9.84245 38.0882 9.26595 37.8447 8.78613C37.6084 8.30632 37.2575 7.94108 36.792 7.69043C36.3265 7.43262 35.7178 7.30371 34.9658 7.30371C34.3499 7.30371 33.8128 7.41829 33.3545 7.64746C32.8962 7.87663 32.513 8.21322 32.2051 8.65723C31.8971 9.10124 31.6644 9.64909 31.5068 10.3008C31.3564 10.9453 31.2812 11.6829 31.2812 12.5137V13.835C31.2812 14.6227 31.3493 15.3389 31.4854 15.9834C31.6286 16.6208 31.8434 17.1686 32.1299 17.627C32.4235 18.0853 32.7959 18.4398 33.2471 18.6904C33.6982 18.9411 34.2389 19.0664 34.8691 19.0664C35.6354 19.0664 36.2549 18.9447 36.7275 18.7012C37.2074 18.4577 37.569 18.1032 37.8125 17.6377C38.0632 17.165 38.2279 16.5885 38.3066 15.9082ZM42.6895 15.3174V15.0703C42.6895 14.2324 42.8112 13.4554 43.0547 12.7393C43.2982 12.016 43.6491 11.3893 44.1074 10.8594C44.5729 10.3223 45.1387 9.9069 45.8047 9.61328C46.4779 9.3125 47.237 9.16211 48.082 9.16211C48.9342 9.16211 49.6934 9.3125 50.3594 9.61328C51.0326 9.9069 51.6019 10.3223 52.0674 10.8594C52.5329 11.3893 52.8874 12.016 53.1309 12.7393C53.3743 13.4554 53.4961 14.2324 53.4961 15.0703V15.3174C53.4961 16.1553 53.3743 16.9323 53.1309 17.6484C52.8874 18.3646 52.5329 18.9912 52.0674 19.5283C51.6019 20.0583 51.0361 20.4736 50.3701 20.7744C49.7041 21.068 48.9486 21.2148 48.1035 21.2148C47.2513 21.2148 46.4886 21.068 45.8154 20.7744C45.1494 20.4736 44.5837 20.0583 44.1182 19.5283C43.6527 18.9912 43.2982 18.3646 43.0547 17.6484C42.8112 16.9323 42.6895 16.1553 42.6895 15.3174ZM45.2783 15.0703V15.3174C45.2783 15.8402 45.332 16.3343 45.4395 16.7998C45.5469 17.2653 45.7152 17.6735 45.9443 18.0244C46.1735 18.3753 46.4671 18.651 46.8252 18.8516C47.1833 19.0521 47.6094 19.1523 48.1035 19.1523C48.5833 19.1523 48.9987 19.0521 49.3496 18.8516C49.7077 18.651 50.0013 18.3753 50.2305 18.0244C50.4596 17.6735 50.6279 17.2653 50.7354 16.7998C50.8499 16.3343 50.9072 15.8402 50.9072 15.3174V15.0703C50.9072 14.5547 50.8499 14.0677 50.7354 13.6094C50.6279 13.1439 50.4561 12.7321 50.2197 12.374C49.9906 12.016 49.6969 11.7367 49.3389 11.5361C48.988 11.3285 48.569 11.2246 48.082 11.2246C47.5951 11.2246 47.1725 11.3285 46.8145 11.5361C46.4635 11.7367 46.1735 12.016 45.9443 12.374C45.7152 12.7321 45.5469 13.1439 45.4395 13.6094C45.332 14.0677 45.2783 14.5547 45.2783 15.0703ZM58.2334 11.8584V21H55.6445V9.37695H58.083L58.2334 11.8584ZM57.7715 14.7588L56.9336 14.748C56.9408 13.9245 57.0553 13.1689 57.2773 12.4814C57.5065 11.7939 57.8216 11.2031 58.2227 10.709C58.6309 10.2148 59.1178 9.83529 59.6836 9.57031C60.2493 9.29818 60.8796 9.16211 61.5742 9.16211C62.1328 9.16211 62.6377 9.24089 63.0889 9.39844C63.5472 9.54883 63.9375 9.7959 64.2598 10.1396C64.5892 10.4834 64.8398 10.931 65.0117 11.4824C65.1836 12.0267 65.2695 12.6963 65.2695 13.4912V21H62.6699V13.4805C62.6699 12.9219 62.5876 12.4814 62.4229 12.1592C62.2653 11.8298 62.0326 11.597 61.7246 11.4609C61.4238 11.3177 61.0479 11.2461 60.5967 11.2461C60.1527 11.2461 59.7552 11.3392 59.4043 11.5254C59.0534 11.7116 58.7562 11.9658 58.5127 12.2881C58.2764 12.6104 58.0938 12.9827 57.9648 13.4053C57.8359 13.8278 57.7715 14.279 57.7715 14.7588ZM70.4795 11.8584V21H67.8906V9.37695H70.3291L70.4795 11.8584ZM70.0176 14.7588L69.1797 14.748C69.1868 13.9245 69.3014 13.1689 69.5234 12.4814C69.7526 11.7939 70.0677 11.2031 70.4688 10.709C70.877 10.2148 71.3639 9.83529 71.9297 9.57031C72.4954 9.29818 73.1257 9.16211 73.8203 9.16211C74.3789 9.16211 74.8838 9.24089 75.335 9.39844C75.7933 9.54883 76.1836 9.7959 76.5059 10.1396C76.8353 10.4834 77.0859 10.931 77.2578 11.4824C77.4297 12.0267 77.5156 12.6963 77.5156 13.4912V21H74.916V13.4805C74.916 12.9219 74.8337 12.4814 74.6689 12.1592C74.5114 11.8298 74.2786 11.597 73.9707 11.4609C73.6699 11.3177 73.2939 11.2461 72.8428 11.2461C72.3988 11.2461 72.0013 11.3392 71.6504 11.5254C71.2995 11.7116 71.0023 11.9658 70.7588 12.2881C70.5225 12.6104 70.3398 12.9827 70.2109 13.4053C70.082 13.8278 70.0176 14.279 70.0176 14.7588ZM85.2822 21.2148C84.4229 21.2148 83.6458 21.0752 82.9512 20.7959C82.2637 20.5094 81.6764 20.112 81.1895 19.6035C80.7096 19.0951 80.3408 18.4971 80.083 17.8096C79.8252 17.1221 79.6963 16.3809 79.6963 15.5859V15.1562C79.6963 14.2467 79.8288 13.4232 80.0938 12.6855C80.3587 11.9479 80.7275 11.3177 81.2002 10.7949C81.6729 10.265 82.2314 9.86035 82.876 9.58105C83.5205 9.30176 84.2188 9.16211 84.9707 9.16211C85.8014 9.16211 86.5283 9.30176 87.1514 9.58105C87.7744 9.86035 88.29 10.2542 88.6982 10.7627C89.1136 11.264 89.4215 11.862 89.6221 12.5566C89.8298 13.2513 89.9336 14.0176 89.9336 14.8555V15.9619H80.9531V14.1035H87.377V13.8994C87.3626 13.4339 87.2695 12.9971 87.0977 12.5889C86.9329 12.1807 86.6787 11.8512 86.335 11.6006C85.9912 11.3499 85.5329 11.2246 84.96 11.2246C84.5303 11.2246 84.1471 11.3177 83.8105 11.5039C83.4811 11.6829 83.2054 11.9443 82.9834 12.2881C82.7614 12.6318 82.5895 13.0472 82.4678 13.5342C82.3532 14.014 82.2959 14.5547 82.2959 15.1562V15.5859C82.2959 16.0944 82.3639 16.5671 82.5 17.0039C82.6432 17.4336 82.8509 17.8096 83.123 18.1318C83.3952 18.4541 83.7246 18.7083 84.1113 18.8945C84.498 19.0736 84.9385 19.1631 85.4326 19.1631C86.0557 19.1631 86.6107 19.0378 87.0977 18.7871C87.5846 18.5365 88.0072 18.182 88.3652 17.7236L89.7295 19.0449C89.4788 19.4102 89.153 19.7611 88.752 20.0977C88.3509 20.4271 87.8604 20.6956 87.2803 20.9033C86.7074 21.111 86.0413 21.2148 85.2822 21.2148ZM96.7012 19.1523C97.1237 19.1523 97.5033 19.07 97.8398 18.9053C98.1836 18.7334 98.4593 18.4971 98.667 18.1963C98.8818 17.8955 99 17.5482 99.0215 17.1543H101.46C101.446 17.9062 101.224 18.5902 100.794 19.2061C100.364 19.8219 99.7949 20.3125 99.0859 20.6777C98.377 21.0358 97.5928 21.2148 96.7334 21.2148C95.8454 21.2148 95.0719 21.0645 94.4131 20.7637C93.7542 20.4557 93.2064 20.0332 92.7695 19.4961C92.3327 18.959 92.0033 18.3395 91.7812 17.6377C91.5664 16.9359 91.459 16.1839 91.459 15.3818V15.0059C91.459 14.2038 91.5664 13.4518 91.7812 12.75C92.0033 12.041 92.3327 11.418 92.7695 10.8809C93.2064 10.3438 93.7542 9.9248 94.4131 9.62402C95.0719 9.31608 95.8418 9.16211 96.7227 9.16211C97.6536 9.16211 98.4701 9.34831 99.1719 9.7207C99.8737 10.0859 100.425 10.598 100.826 11.2568C101.234 11.9085 101.446 12.6676 101.46 13.5342H99.0215C99 13.1045 98.8926 12.7178 98.6992 12.374C98.513 12.0231 98.248 11.7438 97.9043 11.5361C97.5677 11.3285 97.1631 11.2246 96.6904 11.2246C96.1676 11.2246 95.7344 11.332 95.3906 11.5469C95.0469 11.7546 94.7783 12.041 94.585 12.4062C94.3916 12.7643 94.252 13.1689 94.166 13.6201C94.0872 14.0641 94.0479 14.526 94.0479 15.0059V15.3818C94.0479 15.8617 94.0872 16.3271 94.166 16.7783C94.2448 17.2295 94.3809 17.6341 94.5742 17.9922C94.7747 18.3431 95.0469 18.626 95.3906 18.8408C95.7344 19.0485 96.1712 19.1523 96.7012 19.1523ZM108.775 9.37695V11.2676H102.223V9.37695H108.775ZM104.113 6.53027H106.702V17.7881C106.702 18.1462 106.752 18.4219 106.853 18.6152C106.96 18.8014 107.107 18.9268 107.293 18.9912C107.479 19.0557 107.698 19.0879 107.948 19.0879C108.127 19.0879 108.299 19.0771 108.464 19.0557C108.629 19.0342 108.761 19.0127 108.861 18.9912L108.872 20.9678C108.657 21.0322 108.407 21.0895 108.12 21.1396C107.841 21.1898 107.519 21.2148 107.153 21.2148C106.559 21.2148 106.033 21.111 105.574 20.9033C105.116 20.6885 104.758 20.3411 104.5 19.8613C104.242 19.3815 104.113 18.7441 104.113 17.9492V6.53027ZM121.58 9.37695V11.2676H115.027V9.37695H121.58ZM116.918 6.53027H119.507V17.7881C119.507 18.1462 119.557 18.4219 119.657 18.6152C119.765 18.8014 119.911 18.9268 120.098 18.9912C120.284 19.0557 120.502 19.0879 120.753 19.0879C120.932 19.0879 121.104 19.0771 121.269 19.0557C121.433 19.0342 121.566 19.0127 121.666 18.9912L121.677 20.9678C121.462 21.0322 121.211 21.0895 120.925 21.1396C120.646 21.1898 120.323 21.2148 119.958 21.2148C119.364 21.2148 118.837 21.111 118.379 20.9033C117.921 20.6885 117.562 20.3411 117.305 19.8613C117.047 19.3815 116.918 18.7441 116.918 17.9492V6.53027ZM122.826 15.3174V15.0703C122.826 14.2324 122.948 13.4554 123.191 12.7393C123.435 12.016 123.786 11.3893 124.244 10.8594C124.71 10.3223 125.275 9.9069 125.941 9.61328C126.615 9.3125 127.374 9.16211 128.219 9.16211C129.071 9.16211 129.83 9.3125 130.496 9.61328C131.169 9.9069 131.739 10.3223 132.204 10.8594C132.67 11.3893 133.024 12.016 133.268 12.7393C133.511 13.4554 133.633 14.2324 133.633 15.0703V15.3174C133.633 16.1553 133.511 16.9323 133.268 17.6484C133.024 18.3646 132.67 18.9912 132.204 19.5283C131.739 20.0583 131.173 20.4736 130.507 20.7744C129.841 21.068 129.085 21.2148 128.24 21.2148C127.388 21.2148 126.625 21.068 125.952 20.7744C125.286 20.4736 124.72 20.0583 124.255 19.5283C123.789 18.9912 123.435 18.3646 123.191 17.6484C122.948 16.9323 122.826 16.1553 122.826 15.3174ZM125.415 15.0703V15.3174C125.415 15.8402 125.469 16.3343 125.576 16.7998C125.684 17.2653 125.852 17.6735 126.081 18.0244C126.31 18.3753 126.604 18.651 126.962 18.8516C127.32 19.0521 127.746 19.1523 128.24 19.1523C128.72 19.1523 129.135 19.0521 129.486 18.8516C129.844 18.651 130.138 18.3753 130.367 18.0244C130.596 17.6735 130.765 17.2653 130.872 16.7998C130.987 16.3343 131.044 15.8402 131.044 15.3174V15.0703C131.044 14.5547 130.987 14.0677 130.872 13.6094C130.765 13.1439 130.593 12.7321 130.356 12.374C130.127 12.016 129.834 11.7367 129.476 11.5361C129.125 11.3285 128.706 11.2246 128.219 11.2246C127.732 11.2246 127.309 11.3285 126.951 11.5361C126.6 11.7367 126.31 12.016 126.081 12.374C125.852 12.7321 125.684 13.1439 125.576 13.6094C125.469 14.0677 125.415 14.5547 125.415 15.0703ZM145.46 17.4873L148.575 5.35938H150.208L150.025 8.48535L146.695 21H144.998L145.46 17.4873ZM143.129 5.35938L145.653 17.3906L145.879 21H144.074L140.454 5.35938H143.129ZM153.742 17.3584L156.234 5.35938H158.92L155.3 21H153.495L153.742 17.3584ZM150.842 5.35938L153.925 17.5195L154.376 21H152.679L149.402 8.48535L149.23 5.35938H150.842ZM163.432 9.37695V21H160.832V9.37695H163.432ZM160.66 6.32617C160.66 5.93229 160.789 5.60645 161.047 5.34863C161.312 5.08366 161.677 4.95117 162.143 4.95117C162.601 4.95117 162.963 5.08366 163.228 5.34863C163.493 5.60645 163.625 5.93229 163.625 6.32617C163.625 6.71289 163.493 7.03516 163.228 7.29297C162.963 7.55078 162.601 7.67969 162.143 7.67969C161.677 7.67969 161.312 7.55078 161.047 7.29297C160.789 7.03516 160.66 6.71289 160.66 6.32617ZM171.478 13.2871V15.3496H165.795V13.2871H171.478ZM176.698 5.35938V21H174.002V5.35938H176.698ZM183.079 12.2021V14.3398H176.011V12.2021H183.079ZM183.971 5.35938V7.50781H176.011V5.35938H183.971ZM188.633 9.37695V21H186.033V9.37695H188.633ZM185.861 6.32617C185.861 5.93229 185.99 5.60645 186.248 5.34863C186.513 5.08366 186.878 4.95117 187.344 4.95117C187.802 4.95117 188.164 5.08366 188.429 5.34863C188.694 5.60645 188.826 5.93229 188.826 6.32617C188.826 6.71289 188.694 7.03516 188.429 7.29297C188.164 7.55078 187.802 7.67969 187.344 7.67969C186.878 7.67969 186.513 7.55078 186.248 7.29297C185.99 7.03516 185.861 6.71289 185.861 6.32617Z" fill="#0F172A"/>
</svg>
